<?xml version="1.0" encoding="UTF-8"?> <svg xmlns="http://www.w3.org/2000/svg" width="577" height="471" viewBox="0 0 577 471" fill="none"> <path d="M316.931 471L576.378 320.888L259.447 137.39L0 287.502L316.931 471Z" fill="#40AEFD" fill-opacity="0.05"></path> <path d="M316.931 443.866L576.378 293.754L259.447 110.256L0 260.368L316.931 443.866Z" fill="#40AEFD"></path> <path d="M316.931 443.866V449.024L576.378 298.9V293.754L316.931 443.866Z" fill="#243B72"></path> <path d="M316.931 449.025L0 265.527V260.368L316.931 443.866V449.025Z" fill="#243B72"></path> <path d="M125.451 218.866L303.218 321.572L421.726 253.11L243.958 150.392L125.451 218.866Z" fill="#3A9CE2"></path> <path d="M125.451 198.382L303.218 301.088L421.726 232.626L243.958 129.92L125.451 198.382Z" fill="#7DA3DB"></path> <path d="M303.218 303.027V301.088L421.726 232.626V234.552L303.218 303.027Z" fill="#6A8FBA"></path> <path d="M412.808 90.9533L257.187 1.22422C255.802 0.422916 254.231 0.000677996 252.632 8.15823e-07C251.033 -0.000676364 249.461 0.420232 248.076 1.22036C246.691 2.02049 245.541 3.17161 244.742 4.55786C243.943 5.94411 243.522 7.51658 243.524 9.117V130.293L418.447 231.171L419.502 233.968L421.477 232.924V105.956C421.477 102.913 420.675 99.9248 419.153 97.291C417.631 94.6572 415.443 92.4713 412.808 90.9533Z" fill="#9CCAEF"></path> <path d="M303.218 303.027L125.451 200.321V198.382L303.218 301.088V303.027Z" fill="#6A8FBA"></path> <path d="M419.503 233.943L241.574 131.337V10.1611C241.569 8.55919 241.987 6.9844 242.785 5.59592C243.583 4.20743 244.734 3.05448 246.12 2.25361C247.506 1.45274 249.08 1.03234 250.68 1.03492C252.281 1.0375 253.853 1.46297 255.237 2.2683L410.833 91.9601C413.472 93.4749 415.666 95.6595 417.193 98.2935C418.719 100.927 419.524 103.918 419.527 106.963L419.503 233.943Z" fill="#6691C4"></path> <path d="M412.982 225.416L248.095 130.318V6.69312L412.982 101.779V225.416Z" fill="#F6FBFF"></path> <path d="M251.535 154.518L240.356 148.018C239.86 147.732 239.984 147.185 240.642 146.775L245.523 143.953C245.836 143.768 246.186 143.658 246.548 143.63C246.91 143.602 247.273 143.657 247.61 143.792L258.789 150.305C259.286 150.591 259.162 151.125 258.503 151.548L253.622 154.369C253.31 154.555 252.958 154.665 252.596 154.691C252.234 154.717 251.871 154.657 251.535 154.518Z" fill="#507CA0"></path> <path d="M265.633 162.684L254.392 156.184C253.895 155.898 254.019 155.351 254.678 154.941L259.559 152.119C259.871 151.934 260.222 151.824 260.584 151.796C260.945 151.768 261.309 151.823 261.646 151.958L272.825 158.458C273.321 158.757 273.197 159.291 272.539 159.701L267.657 162.51C267.356 162.693 267.016 162.803 266.665 162.833C266.314 162.864 265.961 162.813 265.633 162.684Z" fill="#507CA0"></path> <path d="M279.743 170.851L268.502 164.35C268.005 164.064 268.129 163.517 268.775 163.107L273.669 160.285C273.981 160.101 274.332 159.99 274.694 159.962C275.055 159.934 275.419 159.989 275.756 160.124L286.997 166.625C287.494 166.923 287.369 167.457 286.711 167.867L281.83 170.689C281.518 170.877 281.168 170.989 280.805 171.017C280.443 171.045 280.079 170.988 279.743 170.851Z" fill="#507CA0"></path> <path d="M293.841 178.967L282.662 172.466C282.165 172.168 282.289 171.634 282.948 171.223L287.829 168.402C288.14 168.214 288.491 168.102 288.853 168.074C289.215 168.046 289.579 168.103 289.916 168.24L301.094 174.741C301.591 175.027 301.467 175.574 300.809 175.984L295.927 178.805C295.615 178.99 295.265 179.101 294.903 179.129C294.541 179.157 294.178 179.102 293.841 178.967Z" fill="#507CA0"></path> <path d="M307.938 187.183L296.76 180.682C296.263 180.384 296.387 179.85 297.033 179.44L301.927 176.618C302.237 176.428 302.588 176.314 302.951 176.286C303.313 176.258 303.678 176.316 304.013 176.456L315.192 182.957C315.701 183.243 315.565 183.79 314.919 184.2L310.025 187.022C309.713 187.206 309.362 187.317 309 187.345C308.639 187.373 308.275 187.318 307.938 187.183Z" fill="#507CA0"></path> <path d="M322.048 195.349L310.87 188.836C310.373 188.55 310.497 188.016 311.155 187.593L316.037 184.784C316.347 184.594 316.698 184.48 317.061 184.452C317.423 184.424 317.788 184.482 318.123 184.623L329.364 191.123C329.861 191.409 329.737 191.956 329.079 192.366L324.185 195.188C323.866 195.381 323.507 195.496 323.136 195.524C322.765 195.552 322.392 195.492 322.048 195.349Z" fill="#507CA0"></path> <path d="M336.146 203.516L324.967 197.002C324.458 196.717 324.595 196.182 325.24 195.76L330.134 192.938C330.447 192.753 330.797 192.643 331.159 192.614C331.521 192.586 331.884 192.642 332.221 192.776L343.4 199.29C343.897 199.575 343.772 200.11 343.127 200.532L338.233 203.354C337.92 203.539 337.57 203.649 337.208 203.677C336.846 203.706 336.483 203.65 336.146 203.516Z" fill="#507CA0"></path> <path d="M350.268 211.669L339.028 205.169C338.531 204.883 338.655 204.336 339.313 203.926L344.195 201.104C344.507 200.919 344.857 200.809 345.219 200.781C345.581 200.753 345.944 200.808 346.281 200.943L357.522 207.456C358.019 207.742 357.895 208.276 357.236 208.699L352.355 211.52C352.043 211.706 351.692 211.816 351.329 211.842C350.967 211.868 350.604 211.809 350.268 211.669Z" fill="#507CA0"></path> <path d="M364.354 219.836L353.175 213.335C352.666 213.049 352.79 212.502 353.448 212.092L358.33 209.27C358.644 209.085 358.997 208.975 359.361 208.947C359.725 208.919 360.09 208.974 360.429 209.109L371.608 215.622C372.105 215.908 371.98 216.442 371.335 216.865L366.416 219.674C366.109 219.86 365.762 219.972 365.404 220C365.046 220.028 364.686 219.972 364.354 219.836Z" fill="#507CA0"></path> <path d="M378.464 228.002L367.223 221.501C366.727 221.215 366.851 220.668 367.509 220.258L372.39 217.437C372.703 217.252 373.053 217.141 373.415 217.113C373.777 217.085 374.14 217.14 374.477 217.275L385.718 223.776C386.215 224.074 386.091 224.608 385.432 225.019L380.551 227.84C380.24 228.028 379.889 228.14 379.527 228.168C379.164 228.196 378.801 228.139 378.464 228.002Z" fill="#507CA0"></path> <path d="M392.562 236.143L381.321 229.667C380.824 229.369 380.948 228.835 381.607 228.424L386.488 225.603C386.799 225.415 387.15 225.303 387.512 225.275C387.874 225.247 388.238 225.304 388.575 225.441L399.815 231.942C400.312 232.228 400.188 232.775 399.53 233.185L394.648 236.006C394.335 236.19 393.983 236.298 393.621 236.322C393.259 236.345 392.896 236.284 392.562 236.143Z" fill="#507CA0"></path> <path d="M238.841 161.566L228.035 155.351C227.426 155.003 227.575 154.332 228.395 153.859L236.63 149.099C237.017 148.87 237.451 148.733 237.899 148.698C238.347 148.664 238.796 148.733 239.214 148.9L250.02 155.115C250.641 155.475 250.479 156.146 249.672 156.619L241.437 161.367C241.049 161.6 240.613 161.739 240.162 161.773C239.712 161.808 239.259 161.737 238.841 161.566Z" fill="#507CA0"></path> <path d="M252.939 169.757L242.145 163.542C241.524 163.182 241.685 162.51 242.493 162.051L250.728 157.29C251.116 157.061 251.553 156.924 252.003 156.889C252.453 156.855 252.904 156.924 253.324 157.091L264.117 163.306C264.738 163.666 264.589 164.338 263.77 164.81L255.535 169.558C255.147 169.791 254.711 169.93 254.26 169.965C253.809 169.999 253.357 169.928 252.939 169.757Z" fill="#507CA0"></path> <path d="M267.049 177.923L256.243 171.708C255.622 171.348 255.783 170.677 256.59 170.217L264.838 165.456C265.223 165.223 265.657 165.084 266.106 165.05C266.555 165.015 267.005 165.086 267.421 165.257L278.228 171.472C278.849 171.833 278.687 172.504 277.88 172.976L269.645 177.724C269.257 177.957 268.821 178.096 268.37 178.131C267.92 178.165 267.467 178.094 267.049 177.923Z" fill="#507CA0"></path> <path d="M281.147 186.089L270.353 179.874C269.732 179.514 269.893 178.843 270.701 178.37L278.936 173.622C279.323 173.389 279.759 173.25 280.21 173.216C280.661 173.181 281.113 173.252 281.532 173.423L292.325 179.638C292.946 179.999 292.797 180.67 291.978 181.13L283.743 185.89C283.355 186.123 282.919 186.262 282.468 186.297C282.017 186.331 281.565 186.26 281.147 186.089Z" fill="#507CA0"></path> <path d="M295.257 194.256L284.45 188.041C283.829 187.68 283.991 187.009 284.798 186.537L293.046 181.789C293.431 181.556 293.865 181.417 294.314 181.382C294.762 181.348 295.213 181.419 295.629 181.59L306.435 187.805C307.056 188.165 306.895 188.836 306.087 189.296L297.84 194.057C297.455 194.289 297.02 194.429 296.572 194.463C296.123 194.498 295.673 194.427 295.257 194.256Z" fill="#507CA0"></path> <path d="M309.354 202.422L298.561 196.207C297.94 195.846 298.089 195.175 298.908 194.703L307.143 189.955C307.531 189.722 307.967 189.583 308.418 189.548C308.869 189.514 309.321 189.585 309.739 189.756L320.533 195.971C321.154 196.331 320.993 196.99 320.185 197.462L311.95 202.223C311.561 202.452 311.125 202.589 310.675 202.624C310.225 202.658 309.774 202.589 309.354 202.422Z" fill="#507CA0"></path> <path d="M323.464 210.588L312.658 204.373C312.037 204.013 312.199 203.341 313.006 202.869L321.241 198.121C321.629 197.89 322.064 197.75 322.514 197.714C322.964 197.677 323.417 197.744 323.837 197.91L334.643 204.124C335.252 204.473 335.103 205.144 334.295 205.616L326.048 210.377C325.661 210.605 325.228 210.743 324.78 210.779C324.333 210.816 323.883 210.75 323.464 210.588Z" fill="#507CA0"></path> <path d="M337.562 218.742L326.768 212.527C326.147 212.179 326.296 211.508 327.116 211.035L335.351 206.275C335.741 206.048 336.177 205.913 336.626 205.878C337.076 205.844 337.527 205.911 337.947 206.076L348.741 212.291C349.362 212.651 349.2 213.322 348.393 213.795L340.158 218.543C339.771 218.776 339.334 218.915 338.884 218.949C338.433 218.984 337.98 218.913 337.562 218.742Z" fill="#507CA0"></path> <path d="M351.672 226.908L340.866 220.693C340.245 220.333 340.406 219.662 341.214 219.202L349.449 214.441C349.838 214.212 350.274 214.075 350.724 214.04C351.174 214.006 351.626 214.075 352.045 214.242L362.851 220.457C363.46 220.818 363.311 221.489 362.491 221.961L354.256 226.709C353.87 226.942 353.436 227.081 352.987 227.116C352.539 227.15 352.088 227.079 351.672 226.908Z" fill="#507CA0"></path> <path d="M365.77 235.074L354.964 228.859C354.355 228.499 354.504 227.828 355.324 227.368L363.559 222.607C363.944 222.375 364.378 222.235 364.827 222.201C365.276 222.166 365.726 222.237 366.142 222.408L376.949 228.623C377.57 228.984 377.408 229.655 376.601 230.127L368.366 234.9C367.976 235.129 367.539 235.264 367.088 235.294C366.638 235.324 366.186 235.249 365.77 235.074Z" fill="#507CA0"></path> <path d="M379.868 243.24L369.074 237.026C368.453 236.665 368.614 235.994 369.422 235.522L377.657 230.773C378.044 230.541 378.481 230.401 378.931 230.367C379.382 230.332 379.834 230.403 380.253 230.575L391.046 236.789C391.668 237.15 391.518 237.821 390.699 238.281L382.464 243.042C382.076 243.274 381.64 243.414 381.189 243.448C380.739 243.483 380.286 243.411 379.868 243.24Z" fill="#507CA0"></path> <path d="M226.37 168.8L215.564 162.585C214.955 162.237 215.104 161.566 215.924 161.093L224.159 156.345C224.545 156.114 224.978 155.975 225.426 155.938C225.874 155.902 226.325 155.969 226.743 156.134L237.549 162.349C238.17 162.697 238.009 163.368 237.201 163.84L228.966 168.588C228.578 168.82 228.143 168.959 227.693 168.995C227.243 169.032 226.79 168.965 226.37 168.8Z" fill="#507CA0"></path> <path d="M240.468 176.954L229.674 170.739C229.053 170.391 229.215 169.72 230.022 169.247L238.257 164.487C238.646 164.258 239.082 164.12 239.532 164.086C239.982 164.052 240.434 164.121 240.853 164.288L251.647 170.503C252.268 170.863 252.119 171.534 251.299 172.007L243.064 176.755C242.677 176.988 242.24 177.127 241.79 177.161C241.339 177.196 240.886 177.125 240.468 176.954Z" fill="#507CA0"></path> <path d="M254.628 185.182L243.822 178.967C243.201 178.607 243.362 177.936 244.17 177.476L252.417 172.715C252.803 172.485 253.237 172.348 253.686 172.313C254.134 172.279 254.584 172.348 255.001 172.516L265.807 178.731C266.428 179.091 266.266 179.763 265.459 180.235L257.224 184.983C256.836 185.216 256.4 185.355 255.949 185.39C255.499 185.424 255.046 185.353 254.628 185.182Z" fill="#507CA0"></path> <path d="M268.676 193.286L257.882 187.071C257.261 186.711 257.423 186.04 258.23 185.58L266.465 180.819C266.853 180.586 267.289 180.447 267.74 180.413C268.19 180.378 268.643 180.449 269.061 180.62L279.855 186.835C280.476 187.195 280.327 187.867 279.507 188.339L271.272 193.087C270.884 193.32 270.448 193.459 269.997 193.494C269.547 193.528 269.094 193.457 268.676 193.286Z" fill="#507CA0"></path> <path d="M282.786 201.452L271.98 195.238C271.359 194.877 271.52 194.206 272.328 193.734L280.575 188.985C280.96 188.753 281.395 188.614 281.843 188.579C282.292 188.545 282.742 188.616 283.159 188.787L293.965 195.001C294.586 195.362 294.424 196.033 293.617 196.493L285.369 201.253C284.984 201.486 284.55 201.625 284.101 201.66C283.653 201.694 283.202 201.623 282.786 201.452Z" fill="#507CA0"></path> <path d="M296.859 209.619L286.065 203.404C285.444 203.043 285.593 202.372 286.413 201.9L294.648 197.152C295.035 196.919 295.472 196.78 295.922 196.745C296.373 196.711 296.826 196.782 297.244 196.953L308.038 203.168C308.659 203.528 308.497 204.199 307.69 204.659L299.455 209.42C299.067 209.652 298.631 209.792 298.18 209.826C297.73 209.861 297.277 209.79 296.859 209.619Z" fill="#507CA0"></path> <path d="M310.994 217.785L300.188 211.57C299.567 211.21 299.728 210.538 300.536 210.066L308.771 205.318C309.158 205.085 309.594 204.946 310.045 204.911C310.496 204.877 310.948 204.948 311.367 205.119L322.173 211.334C322.781 211.682 322.632 212.353 321.825 212.825L313.577 217.586C313.191 217.816 312.757 217.953 312.309 217.988C311.861 218.022 311.411 217.953 310.994 217.785Z" fill="#507CA0"></path> <path d="M325.091 225.951L314.298 219.736C313.677 219.376 313.826 218.704 314.645 218.232L322.881 213.484C323.266 213.253 323.7 213.114 324.148 213.077C324.596 213.04 325.046 213.107 325.464 213.273L336.27 219.488C336.891 219.836 336.73 220.507 335.922 220.979L327.687 225.74C327.299 225.968 326.863 226.106 326.414 226.143C325.964 226.179 325.512 226.114 325.091 225.951Z" fill="#507CA0"></path> <path d="M339.202 234.105L328.396 227.89C327.774 227.542 327.936 226.871 328.743 226.399L336.978 221.638C337.367 221.409 337.803 221.272 338.253 221.237C338.703 221.203 339.155 221.272 339.574 221.439L350.38 227.654C350.989 228.014 350.84 228.686 350.02 229.158L341.785 233.906C341.4 234.139 340.966 234.278 340.517 234.312C340.068 234.347 339.618 234.276 339.202 234.105Z" fill="#507CA0"></path> <path d="M353.299 242.271L342.493 236.056C341.885 235.696 342.034 235.024 342.853 234.565L351.088 229.804C351.475 229.575 351.909 229.438 352.357 229.403C352.805 229.369 353.255 229.438 353.672 229.605L364.478 235.82C365.099 236.18 364.938 236.852 364.13 237.324L355.895 242.072C355.508 242.305 355.071 242.444 354.621 242.479C354.17 242.513 353.718 242.442 353.299 242.271Z" fill="#507CA0"></path> <path d="M367.397 250.437L356.603 244.222C355.982 243.862 356.143 243.191 356.951 242.731L365.186 237.97C365.573 237.737 366.01 237.598 366.46 237.564C366.911 237.529 367.364 237.6 367.782 237.771L378.576 243.986C379.197 244.347 379.048 245.018 378.228 245.49L369.993 250.238C369.605 250.471 369.169 250.61 368.718 250.645C368.268 250.679 367.815 250.608 367.397 250.437Z" fill="#507CA0"></path> <path d="M213.9 175.997L203.094 169.782C202.485 169.421 202.634 168.75 203.441 168.278L211.689 163.53C212.074 163.297 212.508 163.158 212.957 163.123C213.406 163.089 213.856 163.16 214.272 163.331L225.079 169.546C225.7 169.894 225.538 170.565 224.731 171.037L216.496 175.798C216.107 176.027 215.671 176.164 215.221 176.198C214.771 176.233 214.319 176.164 213.9 175.997Z" fill="#507CA0"></path> <path d="M227.998 184.163L217.204 177.948C216.583 177.6 216.744 176.929 217.552 176.456L225.787 171.696C226.176 171.469 226.612 171.333 227.062 171.299C227.511 171.265 227.963 171.332 228.383 171.497L239.176 177.712C239.797 178.072 239.648 178.743 238.829 179.216L230.593 183.939C230.207 184.172 229.771 184.314 229.321 184.352C228.871 184.391 228.419 184.326 227.998 184.163Z" fill="#507CA0"></path> <path d="M242.108 192.316L231.302 186.102C230.68 185.741 230.842 185.082 231.649 184.61L239.897 179.85C240.283 179.62 240.717 179.482 241.165 179.448C241.613 179.413 242.063 179.483 242.48 179.651L253.286 185.866C253.908 186.226 253.746 186.897 252.939 187.369L244.691 192.118C244.306 192.35 243.872 192.489 243.423 192.524C242.974 192.559 242.524 192.487 242.108 192.316Z" fill="#507CA0"></path> <path d="M256.205 200.483L245.412 194.268C244.791 193.908 244.94 193.236 245.759 192.776L253.995 188.016C254.382 187.783 254.818 187.644 255.269 187.609C255.72 187.575 256.172 187.646 256.591 187.817L267.384 194.032C268.005 194.392 267.856 195.063 267.036 195.536L258.801 200.284C258.414 200.517 257.978 200.656 257.527 200.69C257.076 200.725 256.624 200.654 256.205 200.483Z" fill="#507CA0"></path> <path d="M270.315 208.649L259.509 202.434C258.888 202.074 259.049 201.402 259.857 200.942L268.092 196.182C268.479 195.949 268.916 195.81 269.366 195.775C269.817 195.741 270.269 195.812 270.688 195.983L281.494 202.198C282.115 202.558 281.954 203.229 281.146 203.702L272.899 208.45C272.514 208.683 272.079 208.822 271.631 208.856C271.182 208.891 270.731 208.82 270.315 208.649Z" fill="#507CA0"></path> <path d="M284.438 216.815L273.644 210.6C273.023 210.24 273.172 209.569 273.992 209.097L282.227 204.348C282.614 204.116 283.051 203.976 283.501 203.942C283.952 203.907 284.405 203.978 284.823 204.15L295.617 210.364C296.238 210.725 296.076 211.396 295.269 211.856L287.034 216.616C286.646 216.849 286.21 216.988 285.759 217.023C285.309 217.058 284.856 216.986 284.438 216.815Z" fill="#507CA0"></path> <path d="M298.523 224.957L287.717 218.742C287.096 218.381 287.258 217.71 288.065 217.238L296.3 212.49C296.688 212.257 297.124 212.118 297.575 212.083C298.025 212.049 298.478 212.12 298.896 212.291L309.702 218.506C310.311 218.866 310.162 219.537 309.342 219.997L301.107 224.758C300.722 224.99 300.287 225.13 299.839 225.164C299.39 225.199 298.94 225.128 298.523 224.957Z" fill="#507CA0"></path> <path d="M312.621 233.148L301.827 226.933C301.206 226.572 301.355 225.901 302.175 225.429L310.41 220.681C310.795 220.448 311.23 220.309 311.678 220.274C312.127 220.24 312.577 220.311 312.994 220.482L323.8 226.697C324.421 227.045 324.259 227.716 323.452 228.188L315.217 232.949C314.828 233.178 314.392 233.315 313.942 233.35C313.492 233.384 313.04 233.315 312.621 233.148Z" fill="#507CA0"></path> <path d="M326.731 241.314L315.925 235.099C315.304 234.739 315.465 234.067 316.273 233.595L324.508 228.835C324.898 228.608 325.333 228.472 325.783 228.438C326.232 228.404 326.684 228.471 327.104 228.636L337.897 234.851C338.519 235.211 338.369 235.882 337.55 236.355L329.315 241.115C328.927 241.341 328.493 241.477 328.046 241.511C327.598 241.546 327.149 241.478 326.731 241.314Z" fill="#507CA0"></path> <path d="M340.829 249.468L330.023 243.253C329.414 242.905 329.563 242.234 330.383 241.761L338.618 237.001C339.004 236.771 339.438 236.633 339.886 236.599C340.335 236.564 340.785 236.634 341.201 236.802L352.008 243.017C352.629 243.377 352.467 244.048 351.66 244.521L343.425 249.269C343.037 249.502 342.601 249.641 342.15 249.675C341.7 249.71 341.247 249.639 340.829 249.468Z" fill="#507CA0"></path> <path d="M354.926 257.634L344.133 251.419C343.512 251.059 343.673 250.387 344.48 249.928L352.716 245.167C353.103 244.934 353.539 244.795 353.99 244.76C354.441 244.726 354.893 244.797 355.312 244.968L366.105 251.183C366.726 251.543 366.577 252.215 365.757 252.687L357.522 257.435C357.135 257.668 356.699 257.807 356.248 257.842C355.797 257.876 355.345 257.805 354.926 257.634Z" fill="#507CA0"></path> <path d="M201.429 183.193L190.623 176.978C190.002 176.618 190.163 175.947 190.971 175.475L199.218 170.726C199.604 170.494 200.038 170.355 200.486 170.32C200.935 170.285 201.386 170.357 201.802 170.528L212.608 176.742C213.229 177.103 213.068 177.762 212.26 178.234L204.025 182.994C203.636 183.224 203.2 183.361 202.75 183.395C202.3 183.43 201.848 183.361 201.429 183.193Z" fill="#507CA0"></path> <path d="M215.527 191.397L204.733 185.182C204.112 184.821 204.274 184.15 205.081 183.678L213.316 178.93C213.704 178.697 214.14 178.558 214.591 178.523C215.041 178.489 215.494 178.56 215.912 178.731L226.706 184.946C227.327 185.294 227.178 185.965 226.358 186.437L218.123 191.198C217.734 191.427 217.298 191.564 216.848 191.599C216.398 191.633 215.946 191.564 215.527 191.397Z" fill="#507CA0"></path> <path d="M229.637 199.526L218.831 193.311C218.21 192.963 218.372 192.292 219.179 191.819L227.426 187.059C227.814 186.832 228.248 186.697 228.695 186.662C229.143 186.628 229.592 186.695 230.01 186.86L240.816 193.075C241.437 193.435 241.276 194.106 240.468 194.579L232.27 199.314C231.879 199.553 231.436 199.697 230.979 199.734C230.522 199.77 230.062 199.699 229.637 199.526Z" fill="#507CA0"></path> <path d="M243.735 207.68L232.941 201.465C232.32 201.104 232.469 200.446 233.289 199.973L241.524 195.213C241.913 194.983 242.349 194.846 242.799 194.812C243.249 194.777 243.701 194.846 244.12 195.014L254.914 201.229C255.535 201.589 255.373 202.26 254.566 202.733L246.331 207.481C245.943 207.714 245.507 207.853 245.056 207.887C244.606 207.922 244.153 207.851 243.735 207.68Z" fill="#507CA0"></path> <path d="M257.845 215.846L247.039 209.631C246.418 209.27 246.579 208.599 247.387 208.139L255.622 203.379C256.009 203.146 256.445 203.007 256.896 202.972C257.347 202.938 257.799 203.009 258.218 203.18L269.024 209.395C269.632 209.755 269.483 210.426 268.676 210.899L260.428 215.647C260.043 215.879 259.609 216.019 259.16 216.053C258.712 216.088 258.261 216.017 257.845 215.846Z" fill="#507CA0"></path> <path d="M271.943 224.012L261.149 217.797C260.528 217.437 260.677 216.765 261.497 216.305L269.732 211.545C270.119 211.312 270.556 211.173 271.006 211.138C271.457 211.104 271.909 211.175 272.328 211.346L283.121 217.561C283.742 217.921 283.581 218.593 282.774 219.065L274.501 223.813C274.119 224.04 273.689 224.176 273.245 224.21C272.801 224.245 272.356 224.177 271.943 224.012Z" fill="#507CA0"></path> <path d="M286.053 232.178L275.246 225.964C274.625 225.603 274.787 224.932 275.594 224.46L283.829 219.711C284.217 219.479 284.653 219.339 285.104 219.305C285.554 219.27 286.007 219.341 286.425 219.513L297.231 225.727C297.84 226.088 297.691 226.759 296.871 227.219L288.636 231.979C288.251 232.212 287.817 232.351 287.368 232.386C286.919 232.42 286.469 232.349 286.053 232.178Z" fill="#507CA0"></path> <path d="M300.151 240.344L289.344 234.13C288.736 233.769 288.885 233.098 289.705 232.626L297.94 227.878C298.325 227.645 298.759 227.506 299.208 227.471C299.657 227.437 300.107 227.508 300.523 227.679L311.329 233.893C311.95 234.254 311.789 234.925 310.982 235.385L302.747 240.146C302.358 240.375 301.922 240.512 301.472 240.546C301.022 240.581 300.57 240.512 300.151 240.344Z" fill="#507CA0"></path> <path d="M314.248 248.573L303.442 242.358C302.821 241.998 302.982 241.326 303.79 240.854L312.025 236.106C312.412 235.873 312.849 235.734 313.299 235.699C313.75 235.665 314.202 235.736 314.621 235.907L325.414 242.122C326.035 242.47 325.886 243.141 325.067 243.613L316.832 248.374C316.445 248.603 316.011 248.74 315.563 248.775C315.115 248.809 314.665 248.74 314.248 248.573Z" fill="#507CA0"></path> <path d="M328.358 256.677L317.552 250.462C316.943 250.114 317.092 249.443 317.9 248.97L326.147 244.21C326.535 243.983 326.969 243.848 327.416 243.813C327.864 243.779 328.313 243.847 328.731 244.011L339.537 250.226C340.158 250.586 339.996 251.257 339.189 251.73L330.954 256.478C330.565 256.707 330.129 256.844 329.679 256.879C329.229 256.913 328.777 256.844 328.358 256.677Z" fill="#507CA0"></path> <path d="M342.456 264.831L331.662 258.616C331.041 258.268 331.202 257.597 332.01 257.124L340.245 252.364C340.634 252.135 341.07 251.997 341.52 251.963C341.97 251.929 342.422 251.998 342.841 252.165L353.635 258.38C354.256 258.74 354.107 259.411 353.287 259.884L345.052 264.632C344.664 264.865 344.228 265.004 343.777 265.038C343.327 265.073 342.874 265.002 342.456 264.831Z" fill="#507CA0"></path> <path d="M188.959 190.39L178.152 184.175C177.531 183.815 177.693 183.144 178.5 182.671L186.748 177.923C187.133 177.691 187.567 177.551 188.016 177.517C188.465 177.482 188.915 177.553 189.331 177.724L200.137 183.939C200.758 184.3 200.597 184.971 199.79 185.431L191.555 190.154C191.17 190.393 190.735 190.539 190.285 190.58C189.834 190.621 189.38 190.556 188.959 190.39Z" fill="#507CA0"></path> <path d="M203.056 198.556L192.263 192.341C191.642 191.981 191.791 191.31 192.61 190.837L200.845 186.089C201.233 185.857 201.669 185.717 202.12 185.683C202.571 185.648 203.023 185.719 203.441 185.891L214.235 192.105C214.856 192.466 214.707 193.125 213.887 193.597L205.652 198.357C205.264 198.587 204.827 198.724 204.377 198.758C203.927 198.793 203.476 198.724 203.056 198.556Z" fill="#507CA0"></path> <path d="M217.166 206.722L206.36 200.508C205.739 200.147 205.901 199.476 206.708 199.004L214.943 194.256C215.331 194.024 215.767 193.885 216.217 193.848C216.667 193.812 217.119 193.879 217.539 194.044L228.345 200.259C228.966 200.607 228.805 201.278 227.997 201.751L219.75 206.511C219.363 206.74 218.93 206.877 218.482 206.914C218.035 206.95 217.585 206.885 217.166 206.722Z" fill="#507CA0"></path> <path d="M301.591 255.596L220.657 208.798C219.936 208.388 220.11 207.555 221.054 207.058L228.805 202.583C229.257 202.312 229.767 202.149 230.292 202.108C230.818 202.067 231.347 202.149 231.836 202.347L312.77 249.207C313.503 249.629 313.317 250.45 312.373 250.959L304.622 255.422C304.165 255.683 303.653 255.835 303.127 255.865C302.601 255.896 302.075 255.803 301.591 255.596Z" fill="#507CA0"></path> <path d="M315.888 263.873L305.081 257.659C304.46 257.298 304.622 256.627 305.429 256.155L313.677 251.407C314.062 251.174 314.496 251.035 314.945 251C315.393 250.966 315.844 251.037 316.26 251.208L327.066 257.423C327.687 257.771 327.526 258.442 326.719 258.914L318.484 263.675C318.094 263.901 317.658 264.037 317.208 264.071C316.759 264.106 316.307 264.038 315.888 263.873Z" fill="#507CA0"></path> <path d="M329.985 272.04L319.192 265.825C318.571 265.477 318.72 264.806 319.539 264.333L327.774 259.573C328.164 259.346 328.6 259.211 329.05 259.176C329.499 259.142 329.951 259.209 330.37 259.374L341.164 265.589C341.785 265.949 341.636 266.62 340.816 267.093L332.581 271.841C332.192 272.07 331.756 272.207 331.306 272.242C330.856 272.276 330.405 272.207 329.985 272.04Z" fill="#507CA0"></path> <path d="M251.535 154.108L240.356 147.607C239.86 147.321 239.984 146.774 240.642 146.364L245.523 143.543C245.836 143.358 246.186 143.247 246.548 143.219C246.91 143.191 247.273 143.247 247.61 143.381L258.789 149.894C259.286 150.18 259.162 150.715 258.503 151.137L253.622 153.959C253.31 154.144 252.958 154.254 252.596 154.28C252.234 154.306 251.871 154.247 251.535 154.108Z" fill="#5E8AB5"></path> <path d="M265.633 162.324L254.392 155.823C253.895 155.537 254.019 154.99 254.678 154.58L259.559 151.759C259.871 151.574 260.222 151.463 260.584 151.435C260.945 151.407 261.309 151.463 261.646 151.597L272.825 158.098C273.321 158.396 273.197 158.931 272.539 159.341L267.657 162.15C267.356 162.332 267.016 162.443 266.665 162.473C266.314 162.503 265.961 162.452 265.633 162.324Z" fill="#5E8AB5"></path> <path d="M279.743 170.49L268.502 164.052C268.005 163.766 268.129 163.219 268.775 162.809L273.669 159.987C273.981 159.802 274.332 159.692 274.694 159.664C275.055 159.636 275.419 159.691 275.756 159.826L286.997 166.326C287.494 166.625 287.369 167.159 286.711 167.569L281.83 170.391C281.513 170.568 281.16 170.67 280.798 170.687C280.436 170.704 280.075 170.637 279.743 170.49Z" fill="#5E8AB5"></path> <path d="M293.841 178.656L282.662 172.156C282.165 171.857 282.289 171.323 282.948 170.913L287.829 168.091C288.14 167.904 288.491 167.791 288.853 167.763C289.215 167.735 289.579 167.792 289.916 167.93L301.094 174.43C301.591 174.716 301.467 175.263 300.809 175.673L295.927 178.495C295.615 178.68 295.265 178.79 294.903 178.818C294.541 178.846 294.178 178.791 293.841 178.656Z" fill="#5E8AB5"></path> <path d="M307.938 186.823L296.76 180.322C296.263 180.024 296.387 179.489 297.033 179.079L301.927 176.27C302.237 176.08 302.588 175.966 302.951 175.938C303.313 175.909 303.678 175.968 304.013 176.108L315.192 182.609C315.701 182.895 315.565 183.442 314.919 183.852L310.025 186.673C309.712 186.856 309.361 186.965 308.999 186.991C308.637 187.016 308.274 186.959 307.938 186.823Z" fill="#5E8AB5"></path> <path d="M322.048 194.989L310.87 188.476C310.373 188.19 310.497 187.656 311.155 187.233L316.037 184.424C316.347 184.234 316.698 184.12 317.061 184.092C317.423 184.063 317.788 184.122 318.123 184.262L329.364 190.763C329.861 191.049 329.737 191.596 329.079 192.006L324.185 194.827C323.866 195.02 323.507 195.135 323.136 195.163C322.765 195.191 322.392 195.132 322.048 194.989Z" fill="#5E8AB5"></path> <path d="M336.146 203.155L324.967 196.642C324.458 196.356 324.595 195.822 325.24 195.399L330.134 192.577C330.447 192.393 330.797 192.282 331.159 192.254C331.521 192.226 331.884 192.281 332.221 192.416L343.4 198.929C343.897 199.215 343.772 199.749 343.127 200.172L338.233 202.993C337.92 203.178 337.57 203.289 337.208 203.317C336.846 203.345 336.483 203.29 336.146 203.155Z" fill="#5E8AB5"></path> <path d="M350.268 211.284L339.028 204.783C338.531 204.498 338.655 203.951 339.313 203.541L344.195 200.719C344.507 200.534 344.857 200.424 345.219 200.396C345.581 200.367 345.944 200.423 346.281 200.557L357.522 207.071C358.019 207.356 357.895 207.891 357.236 208.313L352.355 211.135C352.043 211.321 351.692 211.431 351.329 211.456C350.967 211.482 350.604 211.423 350.268 211.284Z" fill="#5E8AB5"></path> <path d="M364.354 219.475L353.175 212.975C352.666 212.689 352.79 212.142 353.448 211.732L358.33 208.91C358.644 208.725 358.997 208.614 359.361 208.586C359.725 208.558 360.09 208.614 360.429 208.749L371.608 215.262C372.105 215.548 371.98 216.082 371.335 216.505L366.416 219.314C366.109 219.5 365.762 219.612 365.404 219.64C365.046 219.668 364.686 219.611 364.354 219.475Z" fill="#5E8AB5"></path> <path d="M378.464 227.641L367.223 221.141C366.727 220.855 366.851 220.308 367.509 219.898L372.39 217.076C372.703 216.891 373.053 216.781 373.415 216.753C373.777 216.725 374.14 216.78 374.477 216.915L385.718 223.415C386.215 223.714 386.091 224.248 385.432 224.658L380.551 227.442C380.243 227.636 379.893 227.755 379.531 227.789C379.169 227.824 378.804 227.773 378.464 227.641Z" fill="#5E8AB5"></path> <path d="M392.562 235.808L381.321 229.307C380.824 229.009 380.948 228.474 381.607 228.064L386.488 225.243C386.799 225.055 387.15 224.943 387.512 224.915C387.874 224.887 388.238 224.944 388.575 225.081L399.815 231.582C400.312 231.867 400.188 232.414 399.53 232.825L394.648 235.646C394.337 235.834 393.986 235.946 393.624 235.974C393.262 236.002 392.898 235.945 392.562 235.808Z" fill="#5E8AB5"></path> <path d="M238.841 161.23L228.035 155.016C227.426 154.668 227.575 153.996 228.395 153.524L236.63 148.763C237.017 148.534 237.451 148.397 237.899 148.363C238.347 148.328 238.796 148.397 239.214 148.565L250.02 154.779C250.641 155.14 250.479 155.811 249.672 156.283L241.437 161.032C241.049 161.264 240.613 161.404 240.162 161.438C239.712 161.473 239.259 161.402 238.841 161.23Z" fill="#5E8AB5"></path> <path d="M252.939 169.396L242.145 163.182C241.524 162.821 241.685 162.15 242.493 161.69L250.728 156.929C251.116 156.7 251.553 156.563 252.003 156.529C252.453 156.494 252.904 156.563 253.324 156.731L264.117 162.945C264.738 163.306 264.589 163.977 263.77 164.449L255.535 169.197C255.147 169.43 254.711 169.57 254.26 169.604C253.809 169.639 253.357 169.567 252.939 169.396Z" fill="#5E8AB5"></path> <path d="M267.049 177.563L256.243 171.348C255.622 170.987 255.783 170.316 256.59 169.856L264.838 165.096C265.223 164.863 265.657 164.724 266.106 164.689C266.555 164.655 267.005 164.726 267.421 164.897L278.228 171.112C278.849 171.472 278.687 172.143 277.88 172.616L269.645 177.364C269.257 177.597 268.821 177.736 268.37 177.77C267.92 177.805 267.467 177.734 267.049 177.563Z" fill="#5E8AB5"></path> <path d="M281.147 185.729L270.353 179.514C269.732 179.154 269.893 178.482 270.701 178.01L278.936 173.262C279.323 173.029 279.759 172.89 280.21 172.855C280.661 172.821 281.113 172.892 281.532 173.063L292.325 179.278C292.946 179.638 292.797 180.31 291.978 180.769L283.743 185.53C283.355 185.763 282.919 185.902 282.468 185.937C282.017 185.971 281.565 185.9 281.147 185.729Z" fill="#5E8AB5"></path> <path d="M295.257 193.882L284.45 187.668C283.829 187.307 283.991 186.636 284.798 186.164L293.046 181.416C293.431 181.183 293.865 181.044 294.314 181.009C294.762 180.975 295.213 181.046 295.629 181.217L306.435 187.432C307.056 187.792 306.895 188.463 306.087 188.923L297.84 193.684C297.455 193.916 297.02 194.056 296.572 194.09C296.123 194.125 295.673 194.053 295.257 193.882Z" fill="#5E8AB5"></path> <path d="M309.354 202.061L298.561 195.847C297.94 195.486 298.089 194.815 298.908 194.343L307.143 189.595C307.531 189.362 307.967 189.222 308.418 189.188C308.869 189.153 309.321 189.225 309.739 189.396L320.533 195.61C321.154 195.958 320.993 196.63 320.185 197.102L311.95 201.862C311.561 202.092 311.125 202.229 310.675 202.263C310.225 202.298 309.774 202.229 309.354 202.061Z" fill="#5E8AB5"></path> <path d="M323.464 210.228L312.658 204.013C312.037 203.653 312.199 202.981 313.006 202.509L321.241 197.761C321.629 197.53 322.064 197.39 322.514 197.354C322.964 197.317 323.417 197.384 323.837 197.55L334.643 203.764C335.252 204.112 335.103 204.784 334.295 205.256L326.048 210.041C325.659 210.266 325.225 210.399 324.777 210.431C324.33 210.464 323.881 210.394 323.464 210.228Z" fill="#5E8AB5"></path> <path d="M337.562 218.381L326.768 212.166C326.147 211.818 326.296 211.147 327.116 210.675L335.351 205.914C335.741 205.688 336.177 205.552 336.626 205.518C337.076 205.483 337.527 205.551 337.947 205.716L348.741 211.93C349.362 212.291 349.2 212.962 348.393 213.434L340.158 218.182C339.771 218.415 339.334 218.554 338.884 218.589C338.433 218.623 337.98 218.552 337.562 218.381Z" fill="#5E8AB5"></path> <path d="M351.672 226.547L340.866 220.333C340.245 219.972 340.406 219.301 341.214 218.841L349.449 214.081C349.838 213.851 350.274 213.714 350.724 213.68C351.174 213.645 351.626 213.714 352.045 213.882L362.851 220.096C363.46 220.457 363.311 221.128 362.491 221.6L354.256 226.349C353.87 226.581 353.436 226.72 352.987 226.755C352.539 226.79 352.088 226.718 351.672 226.547Z" fill="#5E8AB5"></path> <path d="M365.77 234.714L354.964 228.499C354.355 228.139 354.504 227.467 355.324 227.007L363.559 222.247C363.944 222.014 364.378 221.875 364.827 221.841C365.276 221.806 365.726 221.877 366.142 222.048L376.949 228.263C377.57 228.623 377.408 229.294 376.601 229.767L368.366 234.515C367.978 234.748 367.542 234.887 367.091 234.921C366.641 234.956 366.188 234.885 365.77 234.714Z" fill="#5E8AB5"></path> <path d="M379.868 242.88L369.074 236.665C368.453 236.305 368.614 235.634 369.422 235.161L377.657 230.413C378.044 230.18 378.481 230.041 378.931 230.007C379.382 229.972 379.834 230.043 380.253 230.214L391.046 236.429C391.668 236.79 391.518 237.461 390.699 237.921L382.464 242.681C382.076 242.914 381.64 243.053 381.189 243.088C380.739 243.122 380.286 243.051 379.868 242.88Z" fill="#5E8AB5"></path> <path d="M226.37 168.439L215.564 162.224C214.955 161.876 215.104 161.205 215.924 160.733L224.159 155.985C224.545 155.754 224.978 155.615 225.426 155.578C225.874 155.541 226.325 155.608 226.743 155.774L237.549 161.988C238.17 162.349 238.009 163.02 237.201 163.492L228.966 168.24C228.577 168.47 228.141 168.607 227.691 168.641C227.241 168.676 226.789 168.607 226.37 168.439Z" fill="#5E8AB5"></path> <path d="M240.468 176.593L229.674 170.378C229.053 170.03 229.215 169.359 230.022 168.887L238.257 164.126C238.646 163.897 239.082 163.76 239.532 163.725C239.982 163.691 240.434 163.76 240.853 163.927L251.647 170.142C252.268 170.503 252.119 171.174 251.299 171.646L243.064 176.394C242.677 176.627 242.24 176.766 241.79 176.801C241.339 176.835 240.886 176.764 240.468 176.593Z" fill="#5E8AB5"></path> <path d="M254.628 184.759L243.822 178.545C243.201 178.184 243.362 177.513 244.17 177.053L252.417 172.292C252.803 172.063 253.237 171.925 253.686 171.89C254.134 171.856 254.584 171.925 255.001 172.094L265.807 178.308C266.428 178.669 266.266 179.34 265.459 179.812L257.224 184.56C256.836 184.793 256.4 184.932 255.949 184.967C255.499 185.002 255.046 184.93 254.628 184.759Z" fill="#5E8AB5"></path> <path d="M268.676 192.926L257.882 186.711C257.261 186.35 257.423 185.679 258.23 185.219L266.465 180.459C266.853 180.226 267.289 180.087 267.74 180.052C268.19 180.018 268.643 180.089 269.061 180.26L279.855 186.475C280.476 186.835 280.327 187.506 279.507 187.979L271.272 192.727C270.884 192.96 270.448 193.099 269.997 193.133C269.547 193.168 269.094 193.097 268.676 192.926Z" fill="#5E8AB5"></path> <path d="M282.786 201.092L271.98 194.877C271.359 194.516 271.52 193.845 272.328 193.373L280.575 188.625C280.96 188.392 281.395 188.253 281.843 188.218C282.292 188.184 282.742 188.255 283.159 188.426L293.965 194.641C294.586 195.001 294.424 195.672 293.617 196.132L285.369 200.893C284.984 201.126 284.55 201.265 284.101 201.299C283.653 201.334 283.202 201.263 282.786 201.092Z" fill="#5E8AB5"></path> <path d="M296.859 209.258L286.065 203.043C285.444 202.683 285.593 202.012 286.413 201.539L294.648 196.791C295.035 196.558 295.472 196.419 295.922 196.385C296.373 196.35 296.826 196.421 297.244 196.592L308.038 202.807C308.659 203.168 308.497 203.839 307.69 204.299L299.455 209.059C299.067 209.292 298.631 209.431 298.18 209.466C297.73 209.5 297.277 209.429 296.859 209.258Z" fill="#5E8AB5"></path> <path d="M310.994 217.424L300.188 211.209C299.567 210.849 299.728 210.178 300.536 209.705L308.771 204.957C309.158 204.724 309.594 204.585 310.045 204.551C310.496 204.516 310.948 204.587 311.367 204.758L322.173 210.973C322.781 211.321 322.632 211.992 321.825 212.465L313.577 217.225C313.191 217.455 312.757 217.593 312.309 217.627C311.861 217.662 311.411 217.592 310.994 217.424Z" fill="#5E8AB5"></path> <path d="M325.091 225.591L314.298 219.376C313.677 219.015 313.826 218.344 314.645 217.872L322.881 213.124C323.266 212.893 323.7 212.753 324.148 212.717C324.596 212.68 325.046 212.747 325.464 212.912L336.27 219.127C336.891 219.488 336.73 220.159 335.922 220.631L327.687 225.392C327.298 225.618 326.862 225.754 326.412 225.788C325.963 225.823 325.511 225.755 325.091 225.591Z" fill="#5E8AB5"></path> <path d="M339.202 233.744L328.396 227.529C327.774 227.181 327.936 226.51 328.743 226.038L336.978 221.228C337.367 220.998 337.803 220.861 338.253 220.827C338.703 220.792 339.155 220.861 339.574 221.029L350.38 227.243C350.989 227.604 350.84 228.275 350.02 228.747L341.785 233.496C341.404 233.736 340.972 233.884 340.523 233.927C340.074 233.971 339.622 233.908 339.202 233.744Z" fill="#5E8AB5"></path> <path d="M353.299 241.91L342.493 235.696C341.885 235.335 342.034 234.664 342.853 234.204L351.088 229.443C351.475 229.214 351.909 229.077 352.357 229.043C352.805 229.008 353.255 229.077 353.672 229.245L364.478 235.459C365.099 235.82 364.938 236.491 364.13 236.963L355.895 241.711C355.508 241.944 355.071 242.084 354.621 242.118C354.17 242.153 353.718 242.081 353.299 241.91Z" fill="#5E8AB5"></path> <path d="M367.397 250.077L356.603 243.862C355.982 243.502 356.143 242.83 356.951 242.37L365.186 237.61C365.573 237.377 366.01 237.238 366.46 237.203C366.911 237.169 367.364 237.24 367.782 237.411L378.576 243.626C379.197 243.986 379.048 244.657 378.228 245.13L369.993 249.878C369.605 250.111 369.169 250.25 368.718 250.284C368.268 250.319 367.815 250.248 367.397 250.077Z" fill="#5E8AB5"></path> <path d="M213.9 175.636L203.094 169.421C202.485 169.061 202.634 168.389 203.441 167.917L211.689 163.169C212.074 162.936 212.508 162.797 212.957 162.763C213.406 162.728 213.856 162.799 214.272 162.97L225.079 169.185C225.7 169.533 225.538 170.204 224.731 170.677L216.496 175.437C216.107 175.666 215.671 175.803 215.221 175.838C214.771 175.872 214.319 175.803 213.9 175.636Z" fill="#5E8AB5"></path> <path d="M227.998 183.802L217.204 177.587C216.583 177.239 216.744 176.568 217.552 176.096L225.787 171.335C226.176 171.109 226.612 170.973 227.062 170.939C227.511 170.904 227.963 170.972 228.383 171.136L239.176 177.351C239.797 177.712 239.648 178.383 238.829 178.855L230.593 183.603C230.205 183.833 229.769 183.97 229.319 184.004C228.869 184.039 228.417 183.97 227.998 183.802Z" fill="#5E8AB5"></path> <path d="M242.108 191.956L231.302 185.741C230.68 185.381 230.842 184.722 231.649 184.25L239.897 179.489C240.283 179.259 240.717 179.122 241.165 179.087C241.613 179.053 242.063 179.122 242.48 179.29L253.286 185.505C253.908 185.866 253.746 186.537 252.939 187.009L244.691 191.757C244.306 191.99 243.872 192.129 243.423 192.164C242.974 192.198 242.524 192.127 242.108 191.956Z" fill="#5E8AB5"></path> <path d="M256.205 200.098L245.412 193.883C244.791 193.522 244.94 192.851 245.759 192.391L253.995 187.631C254.382 187.398 254.818 187.259 255.269 187.224C255.72 187.19 256.172 187.261 256.591 187.432L267.384 193.647C268.005 194.007 267.856 194.678 267.036 195.151L258.801 199.899C258.414 200.131 257.978 200.271 257.527 200.305C257.076 200.34 256.624 200.269 256.205 200.098Z" fill="#5E8AB5"></path> <path d="M270.315 208.289L259.509 202.074C258.888 201.713 259.049 201.042 259.857 200.582L268.092 195.822C268.479 195.589 268.916 195.45 269.366 195.415C269.817 195.381 270.269 195.452 270.688 195.623L281.494 201.838C282.115 202.198 281.954 202.869 281.146 203.342L272.899 208.09C272.514 208.322 272.079 208.462 271.631 208.496C271.182 208.531 270.731 208.46 270.315 208.289Z" fill="#5E8AB5"></path> <path d="M284.438 216.455L273.644 210.24C273.023 209.879 273.172 209.208 273.992 208.736L282.227 203.988C282.614 203.755 283.051 203.616 283.501 203.581C283.952 203.547 284.405 203.618 284.823 203.789L295.617 210.004C296.238 210.364 296.076 211.035 295.269 211.495L287.009 216.256C286.625 216.485 286.193 216.622 285.747 216.656C285.301 216.691 284.853 216.622 284.438 216.455Z" fill="#5E8AB5"></path> <path d="M298.523 224.621L287.717 218.406C287.096 218.046 287.258 217.375 288.065 216.902L296.3 212.154C296.688 211.921 297.124 211.782 297.575 211.748C298.025 211.713 298.478 211.784 298.896 211.955L309.702 218.17C310.311 218.53 310.162 219.202 309.342 219.662L301.107 224.422C300.722 224.655 300.287 224.794 299.839 224.828C299.39 224.863 298.94 224.792 298.523 224.621Z" fill="#5E8AB5"></path> <path d="M312.621 232.787L301.827 226.572C301.206 226.212 301.355 225.541 302.175 225.068L310.41 220.32C310.795 220.087 311.23 219.948 311.678 219.914C312.127 219.879 312.577 219.95 312.994 220.121L323.8 226.336C324.421 226.684 324.259 227.355 323.452 227.828L315.217 232.588C314.828 232.817 314.392 232.955 313.942 232.989C313.492 233.023 313.04 232.954 312.621 232.787Z" fill="#5E8AB5"></path> <path d="M326.731 240.954L315.925 234.739C315.304 234.378 315.465 233.707 316.273 233.235L324.508 228.474C324.898 228.248 325.333 228.112 325.783 228.078C326.232 228.043 326.684 228.111 327.104 228.275L337.897 234.49C338.519 234.851 338.369 235.522 337.55 235.994L329.315 240.755C328.927 240.981 328.493 241.117 328.046 241.151C327.598 241.186 327.149 241.118 326.731 240.954Z" fill="#5E8AB5"></path> <path d="M340.829 249.107L330.023 242.892C329.414 242.544 329.563 241.873 330.383 241.401L338.618 236.64C339.004 236.41 339.438 236.273 339.886 236.238C340.335 236.204 340.785 236.273 341.201 236.442L352.008 242.656C352.629 243.017 352.467 243.688 351.66 244.16L343.425 248.908C343.037 249.141 342.601 249.28 342.15 249.315C341.7 249.349 341.247 249.278 340.829 249.107Z" fill="#5E8AB5"></path> <path d="M354.926 257.273L344.133 251.059C343.512 250.698 343.673 250.027 344.48 249.567L352.716 244.807C353.103 244.574 353.539 244.435 353.99 244.4C354.441 244.366 354.893 244.437 355.312 244.608L366.105 250.823C366.726 251.183 366.577 251.854 365.757 252.327L357.522 257.075C357.135 257.307 356.699 257.447 356.248 257.481C355.797 257.516 355.345 257.445 354.926 257.273Z" fill="#5E8AB5"></path> <path d="M201.429 182.833L190.623 176.618C190.002 176.257 190.163 175.586 190.971 175.114L199.218 170.366C199.604 170.133 200.038 169.994 200.486 169.959C200.935 169.925 201.386 169.996 201.802 170.167L212.608 176.382C213.229 176.742 213.068 177.401 212.26 177.873L204.025 182.696C203.632 182.915 203.193 183.042 202.743 183.065C202.293 183.089 201.844 183.009 201.429 182.833Z" fill="#5E8AB5"></path> <path d="M215.527 190.999L204.733 184.784C204.112 184.424 204.274 183.752 205.081 183.28L213.316 178.532C213.704 178.299 214.14 178.16 214.591 178.125C215.041 178.091 215.494 178.162 215.912 178.333L226.706 184.548C227.327 184.896 227.178 185.567 226.358 186.039L218.123 190.8C217.734 191.029 217.298 191.166 216.848 191.201C216.398 191.235 215.946 191.166 215.527 190.999Z" fill="#5E8AB5"></path> <path d="M229.637 199.165L218.831 192.95C218.21 192.602 218.372 191.931 219.179 191.459L227.426 186.698C227.814 186.472 228.248 186.336 228.695 186.302C229.143 186.268 229.592 186.335 230.01 186.499L240.816 192.714C241.437 193.075 241.276 193.746 240.468 194.218L232.27 198.954C231.879 199.193 231.436 199.337 230.979 199.373C230.522 199.41 230.062 199.339 229.637 199.165Z" fill="#5E8AB5"></path> <path d="M243.735 207.319L232.941 201.104C232.32 200.743 232.469 200.085 233.289 199.612L241.524 194.852C241.913 194.623 242.349 194.485 242.799 194.451C243.249 194.417 243.701 194.486 244.12 194.653L254.914 200.868C255.535 201.228 255.373 201.899 254.566 202.372L246.331 207.12C245.943 207.353 245.507 207.492 245.056 207.526C244.606 207.561 244.153 207.49 243.735 207.319Z" fill="#5E8AB5"></path> <path d="M257.845 215.485L247.039 209.271C246.418 208.91 246.579 208.239 247.387 207.779L255.622 203.019C256.009 202.786 256.445 202.647 256.896 202.612C257.347 202.577 257.799 202.649 258.218 202.82L269.024 209.034C269.632 209.395 269.483 210.066 268.676 210.538L260.428 215.287C260.043 215.519 259.609 215.658 259.16 215.693C258.712 215.728 258.261 215.656 257.845 215.485Z" fill="#5E8AB5"></path> <path d="M271.943 223.714L261.149 217.499C260.528 217.138 260.677 216.467 261.497 216.007L269.732 211.247C270.119 211.014 270.556 210.875 271.006 210.84C271.457 210.806 271.909 210.877 272.328 211.048L283.121 217.263C283.742 217.623 283.581 218.294 282.774 218.767L274.501 223.453C274.123 223.69 273.696 223.837 273.252 223.882C272.809 223.927 272.361 223.87 271.943 223.714Z" fill="#5E8AB5"></path> <path d="M286.053 231.818L275.246 225.603C274.625 225.242 274.787 224.571 275.594 224.099L283.829 219.351C284.217 219.118 284.653 218.979 285.104 218.944C285.554 218.91 286.007 218.981 286.425 219.152L297.231 225.367C297.84 225.727 297.691 226.398 296.871 226.858L288.636 231.619C288.251 231.852 287.817 231.991 287.368 232.025C286.919 232.06 286.469 231.989 286.053 231.818Z" fill="#5E8AB5"></path> <path d="M300.151 239.984L289.344 233.769C288.736 233.409 288.885 232.737 289.705 232.265L297.94 227.517C298.325 227.284 298.759 227.145 299.208 227.111C299.657 227.076 300.107 227.147 300.523 227.318L311.329 233.533C311.95 233.893 311.789 234.565 310.982 235.024L302.747 239.785C302.358 240.014 301.922 240.151 301.472 240.186C301.022 240.22 300.57 240.151 300.151 239.984Z" fill="#5E8AB5"></path> <path d="M314.248 248.15L303.442 241.935C302.821 241.575 302.982 240.904 303.79 240.431L312.025 235.683C312.412 235.45 312.849 235.311 313.299 235.277C313.75 235.242 314.202 235.313 314.621 235.484L325.414 241.699C326.035 242.047 325.886 242.718 325.067 243.191L316.832 247.951C316.445 248.18 316.011 248.317 315.563 248.352C315.115 248.386 314.665 248.317 314.248 248.15Z" fill="#5E8AB5"></path> <path d="M328.358 256.317L317.552 250.102C316.943 249.754 317.092 249.083 317.9 248.61L326.147 243.85C326.535 243.623 326.969 243.488 327.416 243.453C327.864 243.419 328.313 243.486 328.731 243.651L339.537 249.866C340.158 250.226 339.996 250.897 339.189 251.37L330.954 256.118C330.565 256.347 330.129 256.484 329.679 256.519C329.229 256.553 328.777 256.484 328.358 256.317Z" fill="#5E8AB5"></path> <path d="M342.456 264.47L331.662 258.255C331.041 257.907 331.202 257.236 332.01 256.764L340.245 252.003C340.634 251.774 341.07 251.637 341.52 251.603C341.97 251.568 342.422 251.637 342.841 251.805L353.635 258.019C354.256 258.38 354.107 259.051 353.287 259.523L345.052 264.271C344.664 264.504 344.228 264.643 343.777 264.678C343.327 264.712 342.874 264.641 342.456 264.47Z" fill="#5E8AB5"></path> <path d="M188.959 190.029L178.152 183.814C177.531 183.454 177.693 182.783 178.5 182.31L186.748 177.562C187.133 177.33 187.567 177.19 188.016 177.156C188.465 177.121 188.915 177.193 189.331 177.364L200.137 183.578C200.758 183.939 200.597 184.61 199.79 185.07L191.555 189.83C191.167 190.063 190.731 190.202 190.28 190.237C189.829 190.271 189.377 190.2 188.959 190.029Z" fill="#5E8AB5"></path> <path d="M203.056 198.196L192.263 191.981C191.642 191.62 191.791 190.949 192.61 190.477L200.845 185.729C201.233 185.496 201.669 185.357 202.12 185.322C202.571 185.288 203.023 185.359 203.441 185.53L214.235 191.745C214.856 192.105 214.707 192.764 213.887 193.236L205.652 197.997C205.264 198.226 204.827 198.363 204.377 198.398C203.927 198.432 203.476 198.363 203.056 198.196Z" fill="#5E8AB5"></path> <path d="M217.166 206.312L206.36 200.097C205.739 199.737 205.901 199.066 206.708 198.593L214.943 193.845C215.331 193.614 215.767 193.475 216.217 193.438C216.667 193.402 217.119 193.469 217.539 193.634L228.345 199.849C228.966 200.197 228.805 200.868 227.997 201.34L219.75 206.101C219.363 206.329 218.93 206.467 218.482 206.504C218.035 206.54 217.585 206.475 217.166 206.312Z" fill="#5E8AB5"></path> <path d="M301.591 255.235L220.657 208.375C219.936 207.953 220.11 207.132 221.054 206.635L228.805 202.161C229.257 201.889 229.767 201.726 230.292 201.685C230.818 201.644 231.347 201.726 231.836 201.924L312.77 248.784C313.503 249.207 313.317 250.027 312.373 250.537L304.622 254.999C304.17 255.27 303.66 255.433 303.134 255.474C302.608 255.515 302.08 255.433 301.591 255.235Z" fill="#5E8AB5"></path> <path d="M315.888 263.488L305.081 257.273C304.46 256.913 304.622 256.242 305.429 255.769L313.677 251.021C314.062 250.789 314.496 250.649 314.945 250.615C315.393 250.58 315.844 250.651 316.26 250.822L327.066 257.037C327.687 257.385 327.526 258.056 326.719 258.529L318.484 263.289C318.094 263.516 317.658 263.652 317.208 263.686C316.759 263.72 316.307 263.653 315.888 263.488Z" fill="#5E8AB5"></path> <path d="M329.985 271.679L319.192 265.465C318.571 265.117 318.72 264.445 319.539 263.973L327.774 259.213C328.164 258.986 328.6 258.85 329.05 258.816C329.499 258.781 329.951 258.849 330.37 259.014L341.164 265.228C341.785 265.589 341.636 266.26 340.816 266.732L332.581 271.48C332.192 271.71 331.756 271.847 331.306 271.881C330.856 271.916 330.405 271.847 329.985 271.679Z" fill="#5E8AB5"></path> <path d="M158.702 338.538C179.048 338.538 195.542 329.005 195.542 317.246C195.542 305.487 179.048 295.954 158.702 295.954C138.355 295.954 121.861 305.487 121.861 317.246C121.861 329.005 138.355 338.538 158.702 338.538Z" fill="#3A9CE2"></path> <path d="M149.05 321.099C149.05 321.099 147.262 327.103 151.92 328.396C156.577 329.688 157.385 327.078 159.037 326.233C160.689 325.388 171.085 320.018 173.035 317.532C174.985 315.046 169.085 311.317 159.981 317.134L149.05 321.099Z" fill="#294154"></path> <path d="M130.183 310.46C130.183 310.46 127.985 315.978 132.27 317.594C136.555 319.21 138.12 314.835 139.387 314.027C142.373 312.215 145.187 310.135 147.796 307.812C149.846 305.662 146.765 300.964 137.673 305.65L130.183 310.46Z" fill="#294154"></path> <path d="M134.257 222.843C134.257 222.843 133.015 260.368 133.363 267.59C129.637 276.378 129.177 302.79 130.196 311.205C130.196 312.535 140.356 312.759 140.356 308.048C140.356 303.337 144.418 277.509 145.523 273.805C146.628 270.101 150.33 257.895 150.33 257.895V222.843L138.381 221.066L134.257 222.843Z" fill="#395877"></path> <path d="M177.06 208.102C177.06 208.102 169.719 211.297 164.266 203.304C158.813 195.312 168.924 196.704 168.924 196.704L175.917 200.843L177.06 208.102Z" fill="#35526D"></path> <path d="M148.479 320.478C148.591 322.007 160.527 324.082 160.527 318.688C160.527 313.294 161.123 288.857 162.713 278.652C164.303 268.448 168.576 250.499 167.011 238.654C165.446 226.809 165.222 222.147 164.986 219.189H147.46C147.46 219.189 149.411 269.79 149.411 274.451C149.411 279.112 147.908 312.573 148.479 320.478Z" fill="#44668E"></path> <path d="M149.821 162.386C148.395 161.329 146.731 160.64 144.977 160.38C143.222 160.12 141.43 160.297 139.76 160.894C134.667 162.622 130.904 168.539 130.904 178.147C130.904 187.755 136.108 190.713 136.108 204.858C136.108 219.003 130.978 222.446 131.798 233.085C132.618 243.725 164.291 248.001 168.688 242.06C172.004 236.504 165.16 211.371 166.092 203.665C167.023 195.958 171.06 178.805 169.185 174.107C167.893 170.888 157.894 163.865 149.821 162.386Z" fill="#44668E"></path> <path d="M168.129 199.849C172.178 208.239 175.445 208.649 177.059 208.102C179.481 207.294 180.612 204.199 179.134 197.562C177.656 190.924 172.774 170.142 165.732 173.001C158.465 175.947 164.067 191.471 168.129 199.849Z" fill="#3B5A7A"></path> <path d="M147.535 156.37V162.585C147.535 164.561 153.087 167.06 157.931 164.797V159.589C157.931 159.589 163.434 160.372 164.626 159.589C165.819 158.806 166.899 141.554 163.608 139.541C158.229 135.377 144.778 137.129 144.778 145.482C144.778 148.055 147.535 151.286 147.535 156.37Z" fill="#DE976D"></path> <path d="M143.859 145.283C145.461 147.147 155.037 145.37 158.652 143.282C162.266 141.194 170.005 135.14 166.725 129.212C163.446 123.283 161.856 129.758 156.441 130.952C151.025 132.145 135.81 135.911 143.859 145.283Z" fill="#624638"></path> <path d="M142.43 143.282C141.61 147.284 145.97 158.048 147.771 158.048C151.659 158.048 155.062 151.833 158.167 150.727C161.273 149.621 164.092 142.872 161.496 141.343C158.9 139.814 142.43 143.282 142.43 143.282Z" fill="#624638"></path> <path d="M160.353 166.786C160.527 167.718 155.845 171.932 148.305 168.601C140.766 165.27 145.1 162.833 145.1 162.833L151.199 166.09L155.497 166.239L160.353 166.786Z" fill="#3B5A7A"></path> <path d="M147.535 161.839C147.535 161.839 149.237 166.152 157.931 164.064C158.529 164.281 159.064 164.643 159.487 165.118C159.91 165.593 160.208 166.167 160.353 166.786C158.118 169.869 146.181 168.763 144.778 163.219C145.08 162.771 145.493 162.409 145.976 162.167C146.459 161.926 146.996 161.813 147.535 161.839Z" fill="#BFD8EF"></path> <path d="M159.223 152.443C158.267 151.858 156.466 149.248 158.279 148.304C158.556 148.215 158.849 148.185 159.138 148.215C159.427 148.246 159.707 148.335 159.96 148.479C160.213 148.622 160.434 148.817 160.609 149.05C160.783 149.283 160.908 149.549 160.974 149.832" fill="#DE976D"></path> <path d="M267.036 144.164V55.5291L215.328 25.6484V114.296L267.036 144.164Z" fill="#8FCDEF"></path> <path d="M267.036 144.164L268.278 143.443V54.8081L267.036 55.529V144.164Z" fill="#71B5D3"></path> <path d="M268.278 54.8082L216.57 24.9275L215.328 25.6484L267.036 55.5291L268.278 54.8082Z" fill="#C2ECFF"></path> <path d="M217.614 111.412L263.67 138.024V58.164L217.614 31.5398V111.412Z" fill="#F8FFFF"></path> <path d="M251.299 89.203C257.14 85.8038 257.103 74.8365 251.216 64.7069C245.33 54.5773 235.822 49.1212 229.981 52.5204C224.14 55.9197 224.177 66.887 230.064 77.0166C235.951 87.1462 245.458 92.6022 251.299 89.203Z" fill="#F3F3F3"></path> <path d="M231.898 83.5825L249.386 93.6877V88.3057C249.304 86.827 248.876 85.3883 248.136 84.1058C247.396 82.8233 246.365 81.7329 245.126 80.9226L236.17 75.8016C233.811 74.4343 231.898 75.5406 231.898 78.2875V83.5825Z" fill="#AC6F8E"></path> <path d="M240.642 82.1408C242.356 83.1227 243.735 82.3272 243.735 80.3633V76.8085L237.525 73.2288V76.796C237.589 77.869 237.905 78.9118 238.447 79.8401C238.989 80.7685 239.74 81.5566 240.642 82.1408Z" fill="#F0CAD4"></path> <path d="M240.679 57.2693C242.133 58.1021 248.02 62.3778 248.02 72.3339V82.6256C246.129 79.8374 243.453 77.6743 240.332 76.4108" fill="#B9A197"></path> <path d="M240.679 57.2691C239.214 56.4239 233.326 53.8759 233.326 63.832V74.1236C233.326 74.1236 235.81 72.8807 241.015 76.7463" fill="#B9A197"></path> <path d="M237.611 75.7145L239.015 77.4547C239.375 77.9999 239.856 78.4542 240.42 78.782C240.985 79.1098 241.618 79.3022 242.269 79.344L243.673 79.2197C245.76 79.0332 247.051 77.2061 247.051 74.4343V68.9031C246.928 66.6813 246.284 64.5197 245.17 62.5935C244.057 60.6673 242.505 59.0306 240.642 57.816C237.102 55.7775 234.233 57.4182 234.233 61.5448V67.076C234.401 70.2443 235.586 73.2739 237.611 75.7145Z" fill="#F0CAD4"></path> <path d="M247.051 74.9937C247.585 75.3044 248.02 74.9937 248.02 74.4343V71.8614C248 71.5256 247.902 71.1991 247.734 70.9078C247.566 70.6165 247.332 70.3685 247.051 70.1834C246.517 69.8727 246.082 70.1834 246.082 70.7428V73.3157C246.1 73.652 246.197 73.9792 246.366 74.2708C246.534 74.5624 246.769 74.8101 247.051 74.9937Z" fill="#F0CAD4"></path> <path d="M234.233 67.5983C234.779 67.909 235.214 67.6604 235.214 67.039V64.466C235.197 64.1265 235.098 63.796 234.928 63.502C234.757 63.208 234.519 62.959 234.233 62.7756C233.699 62.4649 233.264 62.7135 233.264 63.335V65.8582C233.274 66.2047 233.368 66.5436 233.536 66.8465C233.705 67.1493 233.944 67.4072 234.233 67.5983Z" fill="#F0CAD4"></path> <path d="M236.195 59.6433C238.545 65.1063 242.428 69.7696 247.374 73.0672V69.0649C247.374 67.6604 246.381 61.023 240.903 57.8783C235.425 54.7336 233.736 57.6794 234.059 63.8196C234.034 63.8072 236.146 63.8818 236.195 59.6433Z" fill="#B9A197"></path> <path d="M222.284 97.7524L259 118.97V116.695L222.284 95.4902V97.7524Z" fill="#C4C4C4"></path> <path d="M230.954 86.8765L250.343 98.0755V96.671L230.954 85.4719V86.8765Z" fill="#C4C4C4"></path> <path d="M222.284 101.121L259 122.325V120.063L222.284 98.8459V101.121Z" fill="#C4C4C4"></path> <path d="M222.284 104.489L259 125.694V123.432L222.284 102.215V104.489Z" fill="#C4C4C4"></path> <path d="M222.284 107.845L259 129.062V126.788L222.284 105.583V107.845Z" fill="#C4C4C4"></path> <path d="M222.284 111.214L259 132.419V130.157L222.284 108.939V111.214Z" fill="#C4C4C4"></path> <path d="M249.001 104.39C249.037 105.062 249.231 105.717 249.568 106.3C249.905 106.883 250.374 107.378 250.939 107.746C252.007 108.367 252.876 107.87 252.876 106.639C252.838 105.961 252.639 105.302 252.296 104.716C251.952 104.131 251.474 103.635 250.902 103.271C249.871 102.649 249.001 103.147 249.001 104.39Z" fill="#E695AE"></path> <path d="M242.133 100.412C242.171 101.085 242.366 101.738 242.702 102.321C243.039 102.904 243.507 103.4 244.07 103.768C245.151 104.39 246.008 103.893 246.008 102.662C245.974 101.989 245.781 101.334 245.444 100.75C245.107 100.167 244.636 99.6718 244.07 99.3062C243.002 98.6847 242.133 99.1819 242.133 100.412Z" fill="#98C0EF"></path> <path d="M235.276 96.4473C235.314 97.1194 235.509 97.7733 235.846 98.3561C236.182 98.939 236.651 99.4347 237.214 99.8033C238.282 100.425 239.151 99.9276 239.151 98.6971C239.115 98.0245 238.921 97.37 238.584 96.7868C238.248 96.2036 237.778 95.7082 237.214 95.3411C236.146 94.7196 235.276 95.2168 235.276 96.4473Z" fill="#EAAD59"></path> <path d="M228.407 92.482C228.445 93.1542 228.641 93.808 228.977 94.3909C229.314 94.9737 229.782 95.4694 230.345 95.838C231.413 96.4595 232.283 95.9623 232.283 94.7194C232.245 94.0489 232.05 93.3969 231.713 92.816C231.376 92.2351 230.908 91.7417 230.345 91.3758C229.277 90.717 228.407 91.2515 228.407 92.482Z" fill="#B687F2"></path> <path d="M409.814 226.684V138.036L358.106 108.168V196.816L409.814 226.684Z" fill="#8FCDEF"></path> <path d="M409.814 226.684L411.056 225.963V137.328L409.814 138.037V226.684Z" fill="#71B5D3"></path> <path d="M411.056 137.328L359.348 107.447L358.106 108.168L409.814 138.036L411.056 137.328Z" fill="#C2ECFF"></path> <path d="M360.392 193.933L406.448 220.544V140.672L360.392 114.06V193.933Z" fill="#F8FFFF"></path> <path d="M394.075 171.666C399.915 168.266 399.876 157.299 393.988 147.17C388.099 137.042 378.591 131.587 372.751 134.988C366.91 138.388 366.949 149.355 372.837 159.484C378.726 169.612 388.234 175.067 394.075 171.666Z" fill="#F3F3F3"></path> <path d="M374.676 166.102L392.164 176.207V170.825C392.082 169.347 391.654 167.908 390.914 166.626C390.174 165.343 389.143 164.253 387.904 163.442L378.948 158.272C376.589 156.904 374.676 157.998 374.676 160.758V166.102Z" fill="#AC6F8E"></path> <path d="M383.42 164.661C385.134 165.642 386.513 164.847 386.513 162.883V159.328L380.302 155.749V159.316C380.367 160.389 380.683 161.432 381.225 162.36C381.766 163.288 382.518 164.076 383.42 164.661Z" fill="#F0CAD4"></path> <path d="M383.457 139.777C384.91 140.622 390.798 144.898 390.798 154.854V165.145C388.907 162.357 386.231 160.194 383.109 158.931" fill="#B9A197"></path> <path d="M383.457 139.777C381.991 138.944 376.104 136.396 376.104 146.352V156.594C376.104 156.594 378.526 155.351 383.792 159.216" fill="#B9A197"></path> <path d="M380.389 158.235L381.793 159.975C382.152 160.52 382.633 160.974 383.198 161.302C383.763 161.63 384.396 161.822 385.047 161.864L386.451 161.74C388.537 161.554 389.829 159.726 389.829 156.955V151.423C389.706 149.202 389.061 147.04 387.948 145.114C386.834 143.188 385.283 141.551 383.42 140.336C379.88 138.298 377.011 139.938 377.011 144.065V149.596C377.179 152.765 378.363 155.794 380.389 158.235Z" fill="#F0CAD4"></path> <path d="M389.829 157.514C390.363 157.824 390.798 157.576 390.798 156.954V154.381C390.78 154.045 390.683 153.718 390.514 153.426C390.346 153.135 390.111 152.887 389.829 152.703C389.295 152.393 388.86 152.641 388.86 153.263V155.836C388.878 156.172 388.975 156.499 389.144 156.791C389.312 157.082 389.547 157.33 389.829 157.514Z" fill="#F0CAD4"></path> <path d="M377.011 150.118C377.557 150.429 377.992 150.118 377.992 149.559V146.986C377.975 146.646 377.876 146.316 377.706 146.022C377.535 145.728 377.297 145.479 377.011 145.295C376.477 144.985 376.042 145.295 376.042 145.855V148.428C376.06 148.765 376.157 149.095 376.325 149.388C376.494 149.682 376.728 149.932 377.011 150.118Z" fill="#F0CAD4"></path> <path d="M378.973 142.151C381.323 147.614 385.206 152.277 390.152 155.575V151.622C390.152 150.23 389.158 143.593 383.681 140.435C378.203 137.278 376.514 140.237 376.837 146.377C376.812 146.327 378.924 146.402 378.973 142.151Z" fill="#B9A197"></path> <path d="M365.062 180.272L401.778 201.489V199.215L365.062 178.01V180.272Z" fill="#C4C4C4"></path> <path d="M373.732 169.396L393.121 180.596V179.191L373.732 167.992V169.396Z" fill="#C4C4C4"></path> <path d="M365.062 183.641L401.778 204.845V202.583L365.062 181.366V183.641Z" fill="#C4C4C4"></path> <path d="M365.062 186.997L401.778 208.214V205.952L365.062 184.734V186.997Z" fill="#C4C4C4"></path> <path d="M365.062 190.365L401.778 211.582V209.308L365.062 188.103V190.365Z" fill="#C4C4C4"></path> <path d="M365.062 193.733L401.778 214.938V212.676L365.062 191.459V193.733Z" fill="#C4C4C4"></path> <path d="M391.779 186.897C391.817 187.569 392.012 188.223 392.349 188.806C392.685 189.389 393.154 189.885 393.717 190.253C394.785 190.875 395.654 190.377 395.654 189.135C395.616 188.464 395.421 187.812 395.085 187.231C394.748 186.65 394.279 186.157 393.717 185.791C392.649 185.182 391.779 185.667 391.779 186.897Z" fill="#E695AE"></path> <path d="M384.911 182.932C384.949 183.604 385.144 184.258 385.48 184.841C385.817 185.424 386.285 185.92 386.848 186.288C387.929 186.91 388.786 186.412 388.786 185.17C388.75 184.499 388.556 183.846 388.219 183.265C387.882 182.683 387.412 182.19 386.848 181.826C385.78 181.204 384.911 181.702 384.911 182.932Z" fill="#98C0EF"></path> <path d="M378.054 178.967C378.092 179.64 378.287 180.293 378.624 180.876C378.96 181.459 379.429 181.955 379.992 182.323C381.06 182.945 381.929 182.448 381.929 181.205C381.891 180.534 381.696 179.882 381.36 179.301C381.023 178.72 380.554 178.227 379.992 177.861C378.924 177.24 378.054 177.724 378.054 178.967Z" fill="#EAAD59"></path> <path d="M371.185 175.002C371.223 175.674 371.418 176.328 371.755 176.911C372.092 177.494 372.56 177.99 373.123 178.358C374.204 178.98 375.061 178.483 375.061 177.24C375.025 176.569 374.83 175.916 374.494 175.335C374.157 174.754 373.687 174.26 373.123 173.896C372.055 173.275 371.185 173.772 371.185 175.002Z" fill="#B687F2"></path> <path d="M289.27 176.916V88.2687L237.562 58.4004V147.048L289.27 176.916Z" fill="#8FCDEF"></path> <path d="M289.27 176.917L290.512 176.196V87.5603L289.27 88.2688V176.917Z" fill="#71B5D3"></path> <path d="M290.512 87.5601L238.804 57.6794L237.562 58.4004L289.27 88.2686L290.512 87.5601Z" fill="#C2ECFF"></path> <path d="M239.45 143.841L285.519 170.453V90.5805L239.45 63.9688V143.841Z" fill="#F8FFFF"></path> <path d="M273.149 121.633C278.99 118.233 278.953 107.266 273.067 97.1366C267.18 87.007 257.673 81.5509 251.832 84.9501C245.991 88.3494 246.028 99.3167 251.914 109.446C257.801 119.576 267.308 125.032 273.149 121.633Z" fill="#F3F3F3"></path> <path d="M253.746 116.011L271.234 126.116V120.722C271.151 119.244 270.721 117.806 269.978 116.526C269.236 115.245 268.202 114.157 266.962 113.351L258.006 108.181C255.646 106.813 253.746 107.907 253.746 110.666V116.011Z" fill="#726E8B"></path> <path d="M262.49 114.569C264.192 115.551 265.571 114.756 265.571 112.792V109.237L259.36 105.657V109.212C259.422 110.289 259.737 111.336 260.281 112.268C260.825 113.199 261.582 113.988 262.49 114.569Z" fill="#F0CAD4"></path> <path d="M259.46 108.119L260.851 109.859C261.214 110.403 261.697 110.855 262.264 111.181C262.831 111.506 263.465 111.696 264.117 111.736L265.508 111.624C267.608 111.437 268.887 109.61 268.887 106.826V101.332C268.764 99.1116 268.121 96.9511 267.01 95.0251C265.899 93.0991 264.35 91.4617 262.49 90.2449C258.95 88.2065 256.081 89.8472 256.081 93.9738V99.4179C256.231 102.609 257.417 105.664 259.46 108.119Z" fill="#F0CAD4"></path> <path d="M268.887 107.422C269.433 107.733 269.868 107.422 269.868 106.863V104.29C269.85 103.953 269.751 103.624 269.58 103.332C269.41 103.04 269.172 102.794 268.887 102.612C268.353 102.301 267.918 102.612 267.918 103.171V105.744C267.936 106.081 268.033 106.408 268.202 106.7C268.37 106.991 268.605 107.239 268.887 107.422Z" fill="#F0CAD4"></path> <path d="M256.081 100.027C256.615 100.338 257.05 100.027 257.05 99.4676V96.932C257.03 96.5961 256.932 96.2696 256.764 95.9783C256.596 95.687 256.362 95.439 256.081 95.254C255.535 94.9432 255.1 95.254 255.1 95.8133V98.3862C255.127 98.7167 255.229 99.0365 255.399 99.321C255.57 99.6055 255.803 99.847 256.081 100.027Z" fill="#F0CAD4"></path> <path d="M269.533 103.321C269.533 103.321 270.104 98.8087 269.21 97.1059C267.91 93.9767 265.625 91.3579 262.701 89.6481C257.832 86.839 256.777 88.2063 255.77 89.8967C255.77 89.8967 254.938 93.6256 256.044 95.6143L256.367 97.3793C256.367 97.3793 258.354 95.6889 257.845 92.0967C257.845 92.0967 261.31 97.6652 267.185 99.5545C267.244 101.169 267.848 102.716 268.899 103.942L269.533 103.321Z" fill="#8C7866"></path> <path d="M244.132 130.181L280.836 151.386V149.124L244.132 127.906V130.181Z" fill="#C4C4C4"></path> <path d="M252.79 119.305L272.179 130.504V129.1L252.79 117.901V119.305Z" fill="#C4C4C4"></path> <path d="M244.132 133.55L280.836 154.754V152.492L244.132 131.275V133.55Z" fill="#C4C4C4"></path> <path d="M244.132 136.906L280.836 158.123V155.848L244.132 134.643V136.906Z" fill="#C4C4C4"></path> <path d="M244.132 140.274L280.836 161.491V159.217L244.132 138.012V140.274Z" fill="#C4C4C4"></path> <path d="M244.132 143.642L280.836 164.847V162.585L244.132 141.367V143.642Z" fill="#C4C4C4"></path> <path d="M270.837 136.806C270.875 137.478 271.07 138.132 271.407 138.715C271.743 139.298 272.212 139.793 272.775 140.162C273.855 140.783 274.712 140.286 274.712 139.043C274.676 138.372 274.482 137.72 274.145 137.138C273.809 136.557 273.339 136.064 272.775 135.7C271.707 135.078 270.837 135.575 270.837 136.806Z" fill="#E695AE"></path> <path d="M263.981 132.841C264.019 133.513 264.214 134.167 264.55 134.75C264.887 135.333 265.355 135.828 265.918 136.197C266.987 136.818 267.856 136.321 267.856 135.078C267.818 134.408 267.623 133.756 267.286 133.175C266.95 132.594 266.481 132.101 265.918 131.735C264.85 131.113 263.981 131.61 263.981 132.841Z" fill="#98C0EF"></path> <path d="M257.112 128.876C257.15 129.548 257.345 130.202 257.682 130.785C258.018 131.367 258.487 131.863 259.05 132.232C260.118 132.853 260.987 132.344 260.987 131.113C260.949 130.443 260.754 129.791 260.418 129.21C260.081 128.629 259.612 128.135 259.05 127.77C257.982 127.148 257.112 127.645 257.112 128.876Z" fill="#EAAD59"></path> <path d="M250.256 124.911C250.294 125.583 250.489 126.237 250.825 126.82C251.162 127.403 251.63 127.898 252.193 128.267C253.262 128.876 254.131 128.379 254.131 127.148C254.088 126.473 253.885 125.818 253.539 125.237C253.194 124.656 252.716 124.165 252.144 123.805C251.125 123.183 250.256 123.68 250.256 124.911Z" fill="#B687F2"></path> <path d="M358.106 216.716V128.068L306.398 98.1997V186.847L358.106 216.716Z" fill="#8FCDEF"></path> <path d="M358.106 216.716L359.348 215.995V127.347L358.106 128.068V216.716Z" fill="#71B5D3"></path> <path d="M359.348 127.347L307.64 97.4788L306.398 98.1997L358.106 128.068L359.348 127.347Z" fill="#C2ECFF"></path> <path d="M308.286 183.628L354.355 210.252V130.38L308.286 103.768V183.628Z" fill="#F8FFFF"></path> <path d="M341.992 161.443C347.833 158.044 347.796 147.077 341.909 136.947C336.022 126.818 326.515 121.362 320.674 124.761C314.833 128.16 314.87 139.127 320.757 149.257C326.644 159.387 336.151 164.843 341.992 161.443Z" fill="#F3F3F3"></path> <path d="M322.583 155.811L340.071 165.904V160.522C339.99 159.043 339.56 157.605 338.818 156.324C338.075 155.043 337.041 153.956 335.798 153.151L326.843 147.98C324.483 146.613 322.583 147.707 322.583 150.466V155.811Z" fill="#726E8B"></path> <path d="M331.327 154.357C333.029 155.351 334.407 154.555 334.407 152.592V149.024L328.197 145.457V149.012C328.258 150.087 328.574 151.132 329.118 152.062C329.662 152.991 330.419 153.778 331.327 154.357Z" fill="#F0CAD4"></path> <path d="M328.296 147.893L329.687 149.633C330.052 150.175 330.536 150.626 331.103 150.951C331.669 151.277 332.302 151.468 332.954 151.51L334.345 151.386C336.444 151.212 337.723 149.385 337.723 146.601V141.069C337.599 138.851 336.955 136.693 335.844 134.769C334.733 132.846 333.185 131.21 331.327 129.995C327.787 127.956 324.918 129.597 324.918 133.724V139.255C325.081 142.424 326.266 145.455 328.296 147.893Z" fill="#F0CAD4"></path> <path d="M337.724 147.222C338.27 147.533 338.705 147.284 338.705 146.663V144.09C338.685 143.751 338.586 143.421 338.416 143.127C338.246 142.834 338.008 142.584 337.724 142.399C337.19 142.089 336.755 142.399 336.755 142.959V145.544C336.775 145.88 336.873 146.207 337.041 146.498C337.209 146.789 337.443 147.037 337.724 147.222Z" fill="#F0CAD4"></path> <path d="M324.918 139.814C325.452 140.125 325.886 139.814 325.886 139.255V136.707C325.868 136.37 325.771 136.043 325.603 135.751C325.435 135.46 325.2 135.212 324.918 135.029C324.371 134.718 323.936 135.029 323.936 135.588V138.161C323.959 138.494 324.059 138.818 324.229 139.105C324.4 139.392 324.636 139.635 324.918 139.814Z" fill="#F0CAD4"></path> <path d="M338.407 143.108C338.407 143.108 338.978 138.608 338.084 136.831C336.784 133.702 334.499 131.083 331.575 129.373C326.706 126.564 325.651 127.919 324.644 129.622C324.644 129.622 323.812 133.351 324.918 135.34L325.241 137.092C325.241 137.092 327.216 135.563 326.682 131.921C326.682 131.921 330.147 137.49 336.022 139.379C336.082 140.993 336.686 142.54 337.736 143.767L338.407 143.108Z" fill="#8C7866"></path> <path d="M312.969 169.981L349.673 191.186V188.923L312.969 167.706V169.981Z" fill="#C4C4C4"></path> <path d="M321.626 159.092L341.015 170.304V168.899L321.626 157.688V159.092Z" fill="#C4C4C4"></path> <path d="M312.969 173.337L349.673 194.554V192.292L312.969 171.074V173.337Z" fill="#C4C4C4"></path> <path d="M312.969 176.705L349.673 197.922V195.648L312.969 174.443V176.705Z" fill="#C4C4C4"></path> <path d="M312.969 180.073L349.673 201.278V199.016L312.969 177.799V180.073Z" fill="#C4C4C4"></path> <path d="M312.969 183.429L349.673 204.647V202.385L312.969 181.167V183.429Z" fill="#C4C4C4"></path> <path d="M339.673 176.606C339.711 177.278 339.907 177.931 340.243 178.514C340.58 179.097 341.048 179.593 341.611 179.962C342.692 180.571 343.549 180.073 343.549 178.843C343.515 178.172 343.321 177.518 342.984 176.936C342.647 176.355 342.177 175.862 341.611 175.499C340.543 174.878 339.673 175.375 339.673 176.606Z" fill="#E695AE"></path> <path d="M332.879 172.641C332.917 173.313 333.112 173.967 333.449 174.55C333.785 175.132 334.254 175.628 334.817 175.997C335.885 176.606 336.755 176.109 336.755 174.878C336.718 174.207 336.523 173.555 336.186 172.974C335.849 172.393 335.38 171.9 334.817 171.534C333.687 170.913 332.879 171.41 332.879 172.641Z" fill="#98C0EF"></path> <path d="M325.948 168.675C325.986 169.347 326.181 170.001 326.518 170.584C326.855 171.167 327.323 171.663 327.886 172.031C328.954 172.64 329.824 172.143 329.824 170.913C329.787 170.242 329.592 169.59 329.255 169.009C328.919 168.427 328.449 167.934 327.886 167.569C326.818 166.948 325.948 167.445 325.948 168.675Z" fill="#EAAD59"></path> <path d="M319.092 164.711C319.13 165.383 319.325 166.036 319.662 166.619C319.998 167.202 320.467 167.698 321.03 168.066C322.098 168.676 322.968 168.178 322.968 166.948C322.931 166.277 322.736 165.625 322.399 165.044C322.062 164.463 321.593 163.969 321.03 163.604C319.962 162.983 319.092 163.48 319.092 164.711Z" fill="#B687F2"></path> <path d="M306.398 206.797V118.149L254.678 88.2686V176.916L306.398 206.797Z" fill="#8FCDEF"></path> <path d="M306.398 206.797L307.628 206.076V117.428L306.398 118.149V206.797Z" fill="#71B5D3"></path> <path d="M307.628 117.429L255.92 87.5603L254.678 88.2688L306.398 118.149L307.628 117.429Z" fill="#C2ECFF"></path> <path d="M256.566 173.709L302.635 200.321V120.461L256.566 93.8494V173.709Z" fill="#F8FFFF"></path> <path d="M290.267 151.452C296.108 148.052 296.069 137.084 290.18 126.956C284.292 116.827 274.783 111.373 268.943 114.773C263.103 118.173 263.141 129.141 269.03 139.269C274.918 149.398 284.427 154.852 290.267 151.452Z" fill="#F3F3F3"></path> <path d="M270.862 145.88L288.351 155.985V150.603C288.269 149.124 287.84 147.686 287.097 146.405C286.354 145.124 285.32 144.037 284.078 143.232L275.122 138.049C272.775 136.694 270.862 137.788 270.862 140.535V145.88Z" fill="#726E8B"></path> <path d="M279.606 144.438C281.308 145.42 282.699 144.637 282.699 142.661V139.106L276.489 135.539V139.093C276.549 140.168 276.863 141.212 277.405 142.141C277.947 143.071 278.701 143.858 279.606 144.438Z" fill="#F0CAD4"></path> <path d="M276.576 138.024L277.967 139.752C278.33 140.297 278.813 140.751 279.38 141.078C279.946 141.406 280.581 141.599 281.233 141.641L282.625 141.517C284.724 141.343 286.015 139.516 286.015 136.732V131.201C285.894 128.98 285.25 126.819 284.137 124.895C283.023 122.97 281.471 121.336 279.606 120.126C276.066 118.075 273.197 119.728 273.197 123.855V129.386C273.367 132.554 274.551 135.583 276.576 138.024Z" fill="#F0CAD4"></path> <path d="M286.015 137.304C286.55 137.614 286.984 137.304 286.984 136.744V134.221C286.966 133.883 286.869 133.554 286.701 133.26C286.533 132.967 286.298 132.717 286.015 132.531C285.469 132.22 285.034 132.531 285.034 133.09V135.663C285.059 135.994 285.161 136.314 285.331 136.599C285.502 136.884 285.736 137.125 286.015 137.304Z" fill="#F0CAD4"></path> <path d="M273.259 129.895C273.793 130.206 274.228 129.896 274.228 129.336V126.763C274.21 126.425 274.113 126.096 273.945 125.803C273.776 125.509 273.541 125.259 273.259 125.073C272.725 124.762 272.278 125.073 272.278 125.632V128.205C272.298 128.544 272.398 128.873 272.568 129.167C272.738 129.46 272.975 129.71 273.259 129.895Z" fill="#F0CAD4"></path> <path d="M286.686 133.189C286.686 133.189 287.257 128.677 286.363 126.975C285.072 123.84 282.785 121.219 279.855 119.517C274.986 116.695 273.93 118.063 272.924 119.765C272.924 119.765 272.091 123.494 273.197 125.483L273.52 127.236C273.52 127.236 275.507 125.707 274.961 122.065C277.211 125.473 280.48 128.083 284.301 129.523C284.361 131.141 284.965 132.691 286.015 133.923L286.686 133.189Z" fill="#8C7866"></path> <path d="M261.248 160.049L297.952 181.267V179.004L261.248 157.787V160.049Z" fill="#C4C4C4"></path> <path d="M269.906 149.174L289.294 160.373V158.981L269.906 147.769V149.174Z" fill="#C4C4C4"></path> <path d="M261.248 163.418L297.952 184.635V182.36L261.248 161.156V163.418Z" fill="#C4C4C4"></path> <path d="M261.248 166.786L297.952 187.991V185.729L261.248 164.511V166.786Z" fill="#C4C4C4"></path> <path d="M261.248 170.154L297.952 191.359V189.097L261.248 167.88V170.154Z" fill="#C4C4C4"></path> <path d="M261.248 173.51L297.952 194.728V192.453L261.248 171.248V173.51Z" fill="#C4C4C4"></path> <path d="M287.953 166.687C287.989 167.359 288.185 168.013 288.524 168.594C288.864 169.176 289.336 169.668 289.903 170.03C290.971 170.652 291.841 170.154 291.841 168.924C291.803 168.252 291.608 167.598 291.271 167.015C290.935 166.432 290.466 165.937 289.903 165.568C288.823 164.959 287.953 165.456 287.953 166.687Z" fill="#E695AE"></path> <path d="M281.097 162.722C281.134 163.392 281.329 164.045 281.665 164.626C282.002 165.207 282.471 165.7 283.035 166.065C284.103 166.687 284.972 166.19 284.972 164.959C284.934 164.287 284.739 163.633 284.403 163.05C284.066 162.467 283.598 161.972 283.035 161.603C281.954 160.994 281.097 161.491 281.097 162.722Z" fill="#98C0EF"></path> <path d="M274.228 158.757C274.266 159.427 274.461 160.079 274.798 160.66C275.134 161.241 275.603 161.734 276.166 162.1C277.246 162.722 278.103 162.225 278.103 160.994C278.068 160.321 277.874 159.666 277.538 159.083C277.201 158.5 276.731 158.004 276.166 157.638C275.097 157.029 274.228 157.526 274.228 158.757Z" fill="#EAAD59"></path> <path d="M267.372 154.792C267.41 155.462 267.605 156.114 267.942 156.695C268.278 157.276 268.747 157.769 269.31 158.135C270.378 158.757 271.247 158.26 271.247 157.029C271.209 156.357 271.014 155.703 270.678 155.12C270.341 154.537 269.873 154.042 269.31 153.673C268.291 153.052 267.372 153.561 267.372 154.792Z" fill="#B687F2"></path> <path d="M278.029 151.361C261.248 123.034 233.015 108.839 214.955 119.566L199.255 128.59L205.28 138.608C206.245 137.064 207.392 135.641 208.695 134.37C223.961 129.398 244.964 141.243 257.882 162.958C270.8 184.672 271.098 208.835 259.447 219.873C257.911 220.352 256.329 220.668 254.727 220.817L260.602 230.575L275.694 221.874C293.754 211.284 294.797 179.638 278.029 151.361Z" fill="#8671C6"></path> <path d="M262.937 160.012C246.157 131.735 217.924 117.49 199.864 128.217C181.804 138.944 180.761 170.565 197.492 198.854C214.223 227.144 242.505 241.363 260.565 230.637C278.625 219.91 279.706 188.289 262.937 160.012ZM259.447 219.985C244.169 224.956 223.166 213.111 210.26 191.334C197.355 169.558 197.045 145.407 208.671 134.37C223.936 129.398 244.94 141.243 257.857 162.958C270.775 184.672 271.098 208.897 259.447 219.985Z" fill="#7163A8"></path> <path d="M210.26 191.285C197.355 169.521 197.045 145.407 208.671 134.37C215.328 132.207 223.079 133.239 230.78 136.856C221.34 132.356 211.813 131.76 204.336 136.209C188.959 145.345 187.977 172.131 202.162 196.033C216.347 219.935 240.307 231.929 255.684 222.794C257.03 221.966 258.28 220.99 259.41 219.885C244.169 224.882 223.166 213.061 210.26 191.285Z" fill="#5C5293"></path> <path opacity="0.6" d="M257.882 163.02C244.964 141.243 223.961 129.46 208.696 134.432C197.045 145.469 197.355 169.583 210.261 191.347C223.166 213.111 244.17 224.907 259.447 219.997C271.098 208.897 270.775 184.784 257.882 163.02Z" fill="#D4F2FF"></path> <g opacity="0.8"> <path opacity="0.8" d="M248.417 215.585C235.773 215.585 221.439 205.84 212.136 190.154C210.338 187.113 208.784 183.933 207.491 180.645C207.17 179.821 207.189 178.903 207.544 178.093C207.899 177.283 208.561 176.647 209.385 176.326C210.208 176.004 211.126 176.024 211.935 176.379C212.745 176.735 213.38 177.397 213.701 178.221C214.858 181.173 216.253 184.024 217.875 186.748C227.302 202.484 242.455 211.694 253.386 208.177C253.802 208.042 254.24 207.991 254.676 208.025C255.112 208.06 255.536 208.181 255.926 208.38C256.315 208.579 256.661 208.853 256.945 209.186C257.228 209.519 257.443 209.905 257.578 210.321C257.712 210.737 257.764 211.176 257.729 211.612C257.694 212.048 257.574 212.473 257.375 212.862C257.176 213.252 256.902 213.598 256.569 213.882C256.237 214.166 255.851 214.381 255.435 214.516C253.168 215.245 250.799 215.606 248.417 215.585Z" fill="white"></path> </g> <g opacity="0.8"> <path opacity="0.8" d="M207.081 166.612C206.221 166.613 205.395 166.281 204.774 165.685C204.154 165.09 203.787 164.277 203.752 163.418C203.342 153.785 206.1 145.656 211.503 140.535C212.148 139.922 213.011 139.59 213.901 139.614C214.791 139.637 215.635 140.013 216.248 140.659C216.86 141.305 217.191 142.169 217.168 143.059C217.145 143.949 216.769 144.794 216.123 145.407C212.136 149.136 210.124 155.488 210.447 163.157C210.465 163.594 210.397 164.031 210.247 164.442C210.096 164.853 209.866 165.231 209.569 165.553C209.273 165.875 208.916 166.136 208.519 166.319C208.122 166.503 207.692 166.607 207.255 166.625L207.081 166.612Z" fill="white"></path> </g> <path d="M281.706 198.022C283.519 194.964 286.562 193.435 288.512 194.591L323.291 214.802L316.67 225.814L281.954 205.641C280.004 204.485 279.892 201.067 281.706 198.022Z" fill="#8FCDEF"></path> <path d="M323.44 222.384C321.626 225.429 318.583 226.97 316.633 225.814C314.683 224.658 314.571 221.24 316.385 218.195C318.198 215.15 321.241 213.608 323.191 214.764C325.141 215.92 325.241 219.326 323.44 222.384Z" fill="#7D7D7D"></path> <path d="M313.006 216.517C316.211 211.122 321.601 208.4 325.042 210.451L386.525 246.224L374.812 265.701L313.453 230.003C309.938 227.964 309.739 221.924 313.006 216.517Z" fill="#8671C6"></path> <path d="M386.798 259.635C383.594 265.03 378.203 267.752 374.75 265.701C371.297 263.65 371.111 257.622 374.303 252.215C377.495 246.808 382.898 244.098 386.351 246.149C389.804 248.2 390.015 254.228 386.798 259.635Z" fill="#7D7D7D"></path> <path d="M384.861 258.516C382.774 262.034 379.259 263.811 377.011 262.469C374.762 261.127 374.626 257.199 376.713 253.669C378.799 250.139 382.327 248.374 384.575 249.716C386.823 251.059 386.96 254.962 384.861 258.516Z" fill="#999999"></path> <path d="M273.806 371.7L377.719 311.665C378.74 311.073 379.899 310.761 381.079 310.761C382.259 310.761 383.418 311.073 384.439 311.665L451.325 350.309C452.132 350.778 452.802 351.451 453.267 352.26C453.733 353.069 453.978 353.987 453.978 354.92C453.978 355.854 453.733 356.772 453.267 357.581C452.802 358.39 452.132 359.063 451.325 359.532L410.411 383.148C407.44 384.87 404.068 385.777 400.635 385.777C397.203 385.777 393.831 384.87 390.86 383.148L334.842 415.465C334.033 415.929 333.117 416.174 332.184 416.174C331.251 416.174 330.335 415.929 329.526 415.465L273.806 383.272C272.802 382.677 271.97 381.831 271.392 380.816C270.814 379.802 270.51 378.654 270.51 377.486C270.51 376.319 270.814 375.171 271.392 374.156C271.97 373.142 272.802 372.295 273.806 371.7Z" fill="#3A9CE2"></path> <path d="M273.806 362.925L377.719 302.89C378.739 302.297 379.899 301.985 381.079 301.985C382.259 301.985 383.418 302.297 384.438 302.89L451.325 341.534C452.132 342.001 452.802 342.672 453.268 343.481C453.734 344.289 453.98 345.206 453.98 346.139C453.98 347.072 453.734 347.989 453.268 348.797C452.802 349.605 452.132 350.277 451.325 350.744L410.411 374.36C407.44 376.082 404.068 376.989 400.635 376.989C397.202 376.989 393.83 376.082 390.86 374.36L334.842 406.677C334.033 407.142 333.117 407.386 332.184 407.386C331.251 407.386 330.335 407.142 329.526 406.677L273.806 374.484C272.804 373.889 271.975 373.043 271.399 372.029C270.823 371.016 270.521 369.87 270.521 368.705C270.521 367.539 270.823 366.393 271.399 365.38C271.975 364.367 272.804 363.521 273.806 362.925Z" fill="#A8A8A8"></path> <path d="M273.806 360.849L377.719 300.777C378.739 300.184 379.899 299.872 381.079 299.872C382.259 299.872 383.418 300.184 384.438 300.777L451.325 339.42C452.132 339.889 452.802 340.562 453.267 341.371C453.733 342.181 453.978 343.098 453.978 344.032C453.978 344.966 453.733 345.883 453.267 346.692C452.802 347.501 452.132 348.174 451.325 348.643L410.41 372.259C407.44 373.981 404.068 374.888 400.635 374.888C397.202 374.888 393.83 373.981 390.86 372.259L334.842 404.576C334.033 405.041 333.116 405.285 332.184 405.285C331.251 405.285 330.335 405.041 329.526 404.576L273.806 372.384C272.81 371.786 271.986 370.941 271.414 369.93C270.842 368.92 270.541 367.778 270.541 366.616C270.541 365.455 270.842 364.313 271.414 363.302C271.986 362.291 272.81 361.446 273.806 360.849Z" fill="white"></path> <path d="M292.884 382.29L273.036 370.83L292.884 359.357L312.733 370.83L292.884 382.29Z" fill="white"></path> <path d="M298.101 361.247L310.522 368.705L307.156 370.594C306.206 371.059 305.16 371.293 304.102 371.278C303.045 371.263 302.006 370.999 301.07 370.507L294.66 366.654C292.996 365.647 293.008 364.068 294.66 363.124L298.101 361.247Z" fill="#726E8B"></path> <path d="M300.213 367.213C300.479 367.305 300.709 367.478 300.873 367.708C301.036 367.937 301.124 368.212 301.124 368.493C301.124 368.775 301.036 369.05 300.873 369.279C300.709 369.509 300.479 369.681 300.213 369.774L297.989 371.017L293.605 368.394L295.828 367.151C296.513 366.818 297.266 366.651 298.028 366.662C298.789 366.672 299.537 366.861 300.213 367.213Z" fill="#F0CAD4"></path> <path d="M295.157 367.561L296.722 367.834C297.19 367.868 297.643 368.01 298.047 368.25C298.45 368.489 298.792 368.819 299.045 369.214L299.455 370.134C300.076 371.501 299.38 372.943 297.641 373.863L294.188 375.802C292.76 376.503 291.186 376.856 289.595 376.833C288.004 376.809 286.441 376.409 285.034 375.665C282.55 374.173 282.55 371.799 285.034 370.37L288.487 368.443C290.556 367.432 292.897 367.122 295.157 367.561Z" fill="#F0CAD4"></path> <path d="M298.002 373.714C298.387 373.95 298.374 374.31 298.002 374.522L296.4 375.429C296.183 375.536 295.945 375.592 295.704 375.592C295.463 375.592 295.225 375.536 295.008 375.429C294.922 375.402 294.847 375.349 294.793 375.276C294.739 375.203 294.71 375.115 294.71 375.025C294.71 374.935 294.739 374.847 294.793 374.774C294.847 374.701 294.922 374.648 295.008 374.621L296.623 373.726C296.836 373.616 297.072 373.558 297.311 373.555C297.55 373.553 297.787 373.608 298.002 373.714Z" fill="#F0CAD4"></path> <path d="M288.897 368.295C289.282 368.518 289.27 368.879 288.897 369.103L287.295 369.997C287.08 370.108 286.841 370.165 286.599 370.165C286.358 370.165 286.119 370.108 285.904 369.997C285.519 369.774 285.519 369.413 285.904 369.202L287.519 368.295C287.733 368.189 287.969 368.135 288.208 368.135C288.447 368.135 288.683 368.189 288.897 368.295Z" fill="#F0CAD4"></path> <path d="M295.617 375.578C295.617 375.578 292.996 377.505 291.58 377.567C289.17 377.865 286.729 377.358 284.637 376.125C281.171 374.062 281.656 372.918 282.364 371.7C283.387 370.753 284.658 370.115 286.028 369.861L287.27 369.463C287.089 370.112 286.742 370.702 286.262 371.175C285.783 371.648 285.188 371.988 284.538 372.16C287.451 372.379 290.22 373.515 292.45 375.404C293.483 374.875 294.666 374.713 295.803 374.944L295.617 375.578Z" fill="#8C7866"></path> <path d="M273.806 349.451L377.719 289.416C378.739 288.824 379.898 288.512 381.079 288.512C382.259 288.512 383.418 288.824 384.438 289.416L451.325 328.122C452.132 328.591 452.802 329.264 453.267 330.073C453.733 330.882 453.978 331.8 453.978 332.734C453.978 333.667 453.733 334.585 453.267 335.394C452.802 336.203 452.132 336.876 451.325 337.345L410.41 360.961C407.438 362.677 404.067 363.58 400.635 363.58C397.204 363.58 393.832 362.677 390.86 360.961L334.842 393.278C334.033 393.742 333.116 393.987 332.184 393.987C331.251 393.987 330.335 393.742 329.526 393.278L273.806 361.085C272.787 360.494 271.942 359.646 271.354 358.625C270.766 357.604 270.457 356.447 270.457 355.268C270.457 354.09 270.766 352.933 271.354 351.912C271.942 350.891 272.787 350.042 273.806 349.451Z" fill="#A8A8A8"></path> <path d="M273.806 347.4L377.719 287.365C378.74 286.773 379.899 286.461 381.079 286.461C382.259 286.461 383.418 286.773 384.439 287.365L451.325 326.009C452.132 326.478 452.802 327.151 453.267 327.96C453.733 328.769 453.978 329.687 453.978 330.62C453.978 331.554 453.733 332.472 453.267 333.281C452.802 334.09 452.132 334.763 451.325 335.232L410.411 358.848C407.438 360.564 404.067 361.467 400.635 361.467C397.204 361.467 393.833 360.564 390.86 358.848L334.842 391.165C334.035 391.635 333.118 391.883 332.184 391.883C331.25 391.883 330.333 391.635 329.526 391.165L273.806 358.972C272.802 358.377 271.97 357.531 271.392 356.516C270.814 355.502 270.51 354.354 270.51 353.186C270.51 352.019 270.814 350.871 271.392 349.856C271.97 348.842 272.802 347.995 273.806 347.4Z" fill="white"></path> <path d="M292.884 368.841L273.036 357.381L292.884 345.909L312.733 357.381L292.884 368.841Z" fill="white"></path> <path d="M298.101 347.798L310.522 355.256L307.156 357.133C306.206 357.598 305.16 357.832 304.102 357.817C303.045 357.802 302.006 357.538 301.07 357.046L294.698 353.255C293.033 352.26 293.046 350.682 294.698 349.725L298.101 347.798Z" fill="#726E8B"></path> <path d="M300.213 353.777C300.48 353.866 300.713 354.037 300.878 354.265C301.043 354.494 301.131 354.769 301.131 355.051C301.131 355.333 301.043 355.608 300.878 355.836C300.713 356.065 300.48 356.236 300.213 356.325L297.989 357.568L293.605 354.945L295.828 353.702C296.513 353.369 297.267 353.202 298.029 353.215C298.791 353.228 299.539 353.42 300.213 353.777Z" fill="#F0CAD4"></path> <path d="M295.157 354.125L296.722 354.386C297.189 354.421 297.642 354.564 298.045 354.803C298.448 355.043 298.79 355.372 299.045 355.765L299.455 356.685C300.076 358.052 299.38 359.507 297.641 360.414L294.188 362.341C292.76 363.042 291.186 363.395 289.595 363.371C288.004 363.348 286.441 362.948 285.034 362.204C282.55 360.712 282.55 358.338 285.034 356.921L288.487 354.982C290.558 353.979 292.9 353.678 295.157 354.125Z" fill="#F0CAD4"></path> <path d="M298.002 360.277C298.387 360.501 298.374 360.861 298.002 361.085L296.4 361.98C296.184 362.09 295.946 362.148 295.704 362.148C295.462 362.148 295.224 362.09 295.008 361.98C294.922 361.954 294.846 361.9 294.793 361.827C294.739 361.755 294.71 361.667 294.71 361.576C294.71 361.486 294.739 361.398 294.793 361.325C294.846 361.252 294.922 361.199 295.008 361.172L296.623 360.277C296.837 360.169 297.073 360.113 297.312 360.113C297.552 360.113 297.788 360.169 298.002 360.277Z" fill="#F0CAD4"></path> <path d="M288.897 354.846C289.282 355.069 289.27 355.43 288.897 355.654L287.295 356.548C287.08 356.659 286.841 356.716 286.599 356.716C286.358 356.716 286.119 356.659 285.904 356.548C285.519 356.312 285.519 355.952 285.904 355.741L287.519 354.833C287.734 354.73 287.97 354.677 288.209 354.679C288.448 354.681 288.684 354.738 288.897 354.846Z" fill="#F0CAD4"></path> <path d="M295.617 362.129C295.617 362.129 292.996 364.068 291.58 364.131C289.169 364.42 286.729 363.909 284.637 362.676C281.171 360.613 281.656 359.47 282.364 358.251C283.386 357.305 284.657 356.671 286.028 356.424L287.27 356.014C287.087 356.664 286.74 357.255 286.261 357.73C285.782 358.204 285.188 358.547 284.537 358.724C287.449 358.942 290.217 360.073 292.45 361.955C293.485 361.432 294.665 361.271 295.803 361.496L295.617 362.129Z" fill="#8C7866"></path> <path d="M273.806 336.002L377.719 275.918C378.742 275.331 379.9 275.023 381.079 275.023C382.257 275.023 383.416 275.331 384.438 275.918L451.325 314.561C452.132 315.03 452.802 315.703 453.267 316.512C453.733 317.322 453.978 318.239 453.978 319.173C453.978 320.107 453.733 321.024 453.267 321.833C452.802 322.643 452.132 323.315 451.325 323.784L410.411 347.4C407.438 349.116 404.067 350.02 400.635 350.02C397.204 350.02 393.833 349.116 390.86 347.4L334.842 379.717C334.035 380.188 333.118 380.436 332.184 380.436C331.25 380.436 330.333 380.188 329.526 379.717L273.806 347.525C272.813 346.927 271.992 346.082 271.421 345.072C270.851 344.063 270.552 342.923 270.552 341.764C270.552 340.604 270.851 339.464 271.421 338.455C271.992 337.445 272.813 336.6 273.806 336.002Z" fill="#A8A8A8"></path> <path d="M273.806 333.952L377.719 273.917C378.741 273.33 379.9 273.021 381.078 273.021C382.257 273.021 383.416 273.33 384.438 273.917L451.325 312.573C452.132 313.04 452.802 313.711 453.268 314.52C453.734 315.328 453.979 316.245 453.979 317.178C453.979 318.111 453.734 319.028 453.268 319.836C452.802 320.644 452.132 321.316 451.325 321.783L410.41 345.399C407.438 347.115 404.067 348.018 400.635 348.018C397.204 348.018 393.832 347.115 390.86 345.399L334.842 377.716C334.035 378.187 333.118 378.435 332.184 378.435C331.25 378.435 330.333 378.187 329.526 377.716L273.806 345.536C272.799 344.942 271.964 344.095 271.384 343.079C270.804 342.063 270.499 340.914 270.499 339.744C270.499 338.574 270.804 337.424 271.384 336.408C271.964 335.393 272.799 334.546 273.806 333.952Z" fill="white"></path> <path d="M292.884 355.405L273.036 343.932L292.884 332.472L312.733 343.932L292.884 355.405Z" fill="white"></path> <path d="M298.101 334.337L310.522 341.795L307.156 343.672C306.207 344.139 305.16 344.375 304.102 344.36C303.044 344.345 302.005 344.079 301.07 343.585L294.698 339.794C293.033 338.799 293.046 337.221 294.698 336.276L298.101 334.337Z" fill="#726E8B"></path> <path d="M300.213 340.328C300.48 340.417 300.713 340.587 300.878 340.816C301.043 341.045 301.131 341.32 301.131 341.602C301.131 341.884 301.043 342.159 300.878 342.387C300.713 342.616 300.48 342.787 300.213 342.876L297.989 344.119L293.605 341.508L295.828 340.266C296.512 339.93 297.266 339.761 298.028 339.772C298.79 339.783 299.538 339.973 300.213 340.328Z" fill="#F0CAD4"></path> <path d="M295.157 340.676L296.722 340.937C297.191 340.972 297.645 341.116 298.048 341.357C298.452 341.599 298.793 341.932 299.045 342.329L299.455 343.236C300.076 344.616 299.38 346.058 297.641 346.965L294.188 348.904C292.758 349.6 291.185 349.95 289.595 349.926C288.005 349.902 286.443 349.505 285.034 348.767C282.55 347.263 282.55 344.889 285.034 343.472L288.487 341.533C290.558 340.53 292.9 340.229 295.157 340.676Z" fill="#F0CAD4"></path> <path d="M298.002 346.829C298.387 347.052 298.374 347.413 298.002 347.636L296.399 348.531C296.184 348.642 295.946 348.699 295.704 348.699C295.462 348.699 295.223 348.642 295.008 348.531C294.623 348.295 294.623 347.935 295.008 347.723L296.623 346.816C296.838 346.713 297.075 346.66 297.314 346.662C297.553 346.664 297.788 346.721 298.002 346.829Z" fill="#F0CAD4"></path> <path d="M288.897 341.397C289.282 341.633 289.27 341.993 288.897 342.205L287.295 343.112C287.079 343.219 286.841 343.275 286.599 343.275C286.358 343.275 286.12 343.219 285.904 343.112C285.817 343.085 285.742 343.032 285.688 342.959C285.634 342.886 285.605 342.798 285.605 342.708C285.605 342.618 285.634 342.53 285.688 342.457C285.742 342.384 285.817 342.331 285.904 342.304L287.518 341.409C287.731 341.299 287.967 341.241 288.206 341.238C288.446 341.236 288.682 341.29 288.897 341.397Z" fill="#F0CAD4"></path> <path d="M295.617 348.693C295.617 348.693 292.996 350.62 291.58 350.682C289.188 350.968 286.768 350.466 284.686 349.252C281.221 347.189 281.705 346.046 282.413 344.827C283.44 343.888 284.71 343.255 286.078 343L287.32 342.59C287.139 343.241 286.792 343.833 286.313 344.308C285.834 344.783 285.239 345.125 284.587 345.3C287.5 345.519 290.27 346.654 292.499 348.544C293.533 348.014 294.715 347.852 295.853 348.084L295.617 348.693Z" fill="#8C7866"></path> <path d="M154.528 110.692C155.767 110.693 156.959 110.215 157.855 109.358C158.75 108.501 159.281 107.331 159.335 106.093L160.49 78.6606C160.527 77.855 160.4 77.0503 160.117 76.2952C159.835 75.54 159.402 74.85 158.845 74.267C158.289 73.6839 157.62 73.2198 156.879 72.9027C156.138 72.5856 155.34 72.4221 154.534 72.4221C153.728 72.4221 152.931 72.5856 152.19 72.9027C151.449 73.2198 150.78 73.6839 150.223 74.267C149.667 74.85 149.234 75.54 148.951 76.2952C148.669 77.0503 148.542 77.855 148.578 78.6606L149.734 106.093C149.785 107.33 150.313 108.5 151.206 109.357C152.1 110.215 153.29 110.693 154.528 110.692Z" fill="#8671C6"></path> <path d="M159.149 118.062C159.149 118.977 158.878 119.871 158.37 120.631C157.862 121.391 157.141 121.984 156.296 122.334C155.452 122.684 154.523 122.776 153.627 122.597C152.73 122.419 151.907 121.978 151.261 121.332C150.615 120.685 150.175 119.861 149.996 118.964C149.818 118.067 149.909 117.138 150.259 116.293C150.609 115.448 151.201 114.726 151.961 114.218C152.721 113.71 153.614 113.438 154.528 113.438C155.135 113.437 155.737 113.555 156.298 113.787C156.86 114.019 157.37 114.359 157.799 114.789C158.228 115.219 158.569 115.729 158.8 116.291C159.032 116.853 159.15 117.455 159.149 118.062Z" fill="#8671C6"></path> </svg> 